<?xml version="1.0" encoding="UTF-8"?>
<svg version="1.1" xmlns="http://www.w3.org/2000/svg" width="512" height="512">
<path d="M0 0 C1.39411248 -0.00302448 2.78822329 -0.00691544 4.1823312 -0.01159257 C7.99452112 -0.02184309 11.80661668 -0.0196983 15.61881423 -0.01541197 C19.73752456 -0.01293939 23.85621249 -0.02196551 27.97491455 -0.02944946 C36.036637 -0.04218363 44.09832612 -0.04399176 52.16005693 -0.0416492 C58.71438585 -0.03986447 65.26870467 -0.041619 71.82303238 -0.04587364 C73.22354749 -0.04676643 73.22354749 -0.04676643 74.65235583 -0.04767724 C76.54926498 -0.04888903 78.44617413 -0.05010316 80.34308328 -0.05131962 C98.1229873 -0.06219019 115.90287234 -0.06003494 133.68277742 -0.05393478 C149.93811199 -0.04876585 166.19338663 -0.06002127 182.44870935 -0.07903299 C199.15176636 -0.09841817 215.85479503 -0.10666621 232.55786335 -0.10290974 C241.93052145 -0.10099876 251.30312853 -0.1034753 260.67577744 -0.11762428 C268.6546906 -0.12954769 276.63352136 -0.13093219 284.61243568 -0.11883412 C288.68064985 -0.11295223 292.74871335 -0.11182685 296.81691742 -0.12383652 C300.54644919 -0.13471816 304.2757049 -0.13156511 308.00522389 -0.11757483 C309.98198628 -0.11369032 311.95876105 -0.12445632 313.9354943 -0.13587171 C326.76921102 -0.05839519 336.82517247 2.44797395 346.35525513 11.29975891 C356.12962157 21.50693863 357.32373152 32.74584176 357.28019714 46.2960968 C357.28147878 47.77030342 357.28147878 47.77030342 357.28278631 49.27429199 C357.28442738 52.55233103 357.27894227 55.83031837 357.27346802 59.10835266 C357.27318582 61.46418252 357.27334451 63.82001247 357.27391052 66.17584229 C357.27419724 72.56153625 357.26832076 78.9472114 357.26133657 85.332901 C357.25571609 91.33323192 357.25471293 97.33356287 357.25368469 103.33389592 C357.25149889 115.2146103 357.24485161 127.0953178 357.23538208 138.97602844 C357.22619575 150.51346299 357.21912089 162.05089566 357.21487427 173.58833313 C357.21448018 174.65601836 357.21448018 174.65601836 357.21407814 175.74527299 C357.21277305 179.31630094 357.21150935 182.88732889 357.21026623 186.45835686 C357.19990832 216.05914127 357.18222824 245.65991851 357.15994263 275.26069641 C358.42757446 275.25078674 359.6952063 275.24087708 361.00125122 275.23066711 C367.33147366 275.18118082 372.20175933 276.9675565 377.47244263 280.44819641 C385.68730415 289.04514452 385.34129182 299.0928221 385.34744263 310.38569641 C385.35968872 311.54585266 385.37193481 312.70600891 385.384552 313.90132141 C385.4065236 326.99639272 384.43763252 338.27821971 375.30447388 348.29585266 C367.48835213 355.64394316 358.91517352 358.38119528 348.32568836 358.39212418 C347.64756563 358.39417681 346.9694429 358.39622944 346.270771 358.39834428 C343.9939672 358.40400764 341.71722402 358.40255785 339.44041443 358.40113831 C337.79330523 358.40372232 336.14619665 358.40673558 334.49908894 358.41014171 C329.96905916 358.41821067 325.43904522 358.42000122 320.9090091 358.42073917 C316.02473852 358.42258991 311.14047616 358.43013734 306.25621033 358.43687439 C295.57435858 358.45045745 284.89251058 358.45648237 274.21065164 358.46088505 C267.54114658 358.46364749 260.87164298 358.46788484 254.2021389 358.47238922 C235.7370389 358.4845818 217.27194007 358.49488117 198.80683613 358.49826431 C197.62498285 358.49848388 196.44312958 358.49870344 195.22546257 358.49892966 C194.04077847 358.49914794 192.85609436 358.49936622 191.63551074 358.49959111 C189.23488192 358.50003458 186.83425309 358.50048114 184.43362427 358.50093079 C183.24282897 358.50115222 182.05203367 358.50137365 180.82515367 358.50160179 C161.52962828 358.50554987 142.23414065 358.52300429 122.93862984 358.54629031 C103.12930438 358.57000349 83.31999786 358.58246615 63.51065797 358.58363223 C52.38801307 358.584549 41.26541737 358.59030192 30.14278603 358.60845184 C20.6716639 358.62385235 11.20060619 358.62897356 1.72947393 358.62071374 C-3.10210897 358.6168071 -7.93356215 358.61773762 -12.76512909 358.63177109 C-17.1911235 358.64450891 -21.61689071 358.6433135 -26.0428848 358.63118038 C-27.6411552 358.62922318 -29.23944169 358.63230286 -30.83768948 358.64102474 C-44.49734044 358.71082785 -55.21820393 357.09525366 -65.59396362 347.66694641 C-75.25869179 337.39665884 -75.02031944 324.07585206 -75.02755737 310.82319641 C-75.03980347 309.64692688 -75.05204956 308.47065735 -75.06466675 307.25874329 C-75.08064047 297.73308314 -74.79465232 289.58289412 -68.62130737 281.98725891 C-63.69119331 277.208508 -57.44584518 275.19158366 -50.69894409 275.23554993 C-49.42551147 275.24384827 -48.15207886 275.25214661 -46.84005737 275.26069641 C-46.84190096 274.03909411 -46.84374454 272.81749182 -46.845644 271.55887127 C-46.88899936 242.53287282 -46.92195825 213.50687562 -46.94218803 184.48085244 C-46.94468932 180.90494425 -46.94727798 177.32903613 -46.94992065 173.75312805 C-46.95044528 173.04125654 -46.9509699 172.32938502 -46.95151041 171.59594164 C-46.96020296 160.08324533 -46.97596658 148.57056908 -46.99436297 137.05788466 C-47.01309406 125.23677307 -47.02418088 113.41567196 -47.02823436 101.59454614 C-47.03072762 94.95819792 -47.03695304 88.32188695 -47.05151749 81.6855526 C-47.0651231 75.43529349 -47.06927396 69.18509841 -47.06627274 62.9348259 C-47.06682156 60.64477376 -47.07078117 58.3547194 -47.07846832 56.0646801 C-47.08847616 52.92866248 -47.08600498 49.79288396 -47.08056641 46.65686035 C-47.08639209 45.75896496 -47.09221777 44.86106958 -47.09821999 43.93596524 C-47.04035601 31.52016917 -44.80748812 20.22131995 -36.09005737 10.94819641 C-25.42844475 1.04669875 -14.03250977 -0.04138638 0 0 Z M-29.40646362 20.33882141 C-35.64355538 28.70026322 -35.99280028 37.03893778 -35.96031189 47.13787842 C-35.96116791 48.11339661 -35.96202393 49.08891479 -35.96290588 50.09399414 C-35.96455729 53.36369164 -35.95904355 56.6333376 -35.95358276 59.9030304 C-35.95327636 62.28681213 -35.95341004 64.67059396 -35.95394802 67.05437565 C-35.95417369 73.43532382 -35.94837973 79.81625322 -35.94133759 86.19719696 C-35.93564074 92.18585265 -35.93537436 98.17450378 -35.93466187 104.16316223 C-35.92941549 121.67484278 -35.91545433 139.18651983 -35.90255737 156.69819641 C-35.88193237 195.82382141 -35.86130737 234.94944641 -35.84005737 275.26069641 C90.21994263 275.26069641 216.27994263 275.26069641 346.15994263 275.26069641 C346.20119263 236.19694641 346.24244263 197.13319641 346.28494263 156.88569641 C346.30315063 144.55146301 346.32135864 132.21722961 346.34011841 119.50923157 C346.3468073 108.45239314 346.3468073 108.45239314 346.35083008 97.39555359 C346.35269327 92.47097471 346.36018793 87.54643895 346.37109375 82.62187195 C346.3848273 76.33702959 346.38892203 70.0522498 346.38608718 63.76739383 C346.38667984 61.46289112 346.39063656 59.15838618 346.39837289 56.85389638 C346.40835416 53.73539966 346.40591027 50.6171445 346.40045166 47.49864197 C346.40918965 46.15365663 346.40918965 46.15365663 346.41810417 44.78149986 C346.36100367 32.60320701 343.96350862 25.0642624 335.34744263 16.44819641 C327.24234367 10.8858736 318.98144075 10.82778374 309.39581299 10.87301636 C308.00994781 10.86883809 306.62408605 10.86335787 305.23823059 10.85669655 C301.44880385 10.84228771 297.65959546 10.84647228 293.870157 10.85386336 C289.77597644 10.85860409 285.6818425 10.84607717 281.587677 10.83584595 C273.5740682 10.81867016 265.56053785 10.81781542 257.54691543 10.82305885 C251.0316745 10.82710416 244.51645671 10.82565271 238.00121689 10.82031059 C237.07309087 10.81956217 236.14496486 10.81881375 235.18871381 10.81804265 C233.30307866 10.81651113 231.41744351 10.81497278 229.53180836 10.81342768 C211.85776546 10.79970698 194.18376685 10.80513724 176.50972496 10.81661289 C160.35136815 10.8265442 144.19312586 10.8136056 128.03478672 10.7896787 C111.43116456 10.76527825 94.82759572 10.7556822 78.22395599 10.76233143 C68.90717544 10.76582162 59.59048294 10.76360478 50.27371597 10.7460804 C42.34235604 10.73134658 34.41114618 10.73073836 26.47978915 10.74815131 C22.43583776 10.7566541 18.39215432 10.75882869 14.34821701 10.74349976 C10.64081153 10.72962085 6.93390275 10.73445633 3.22652577 10.75373899 C1.26169108 10.75925608 -0.70316911 10.74525418 -2.66795528 10.73038489 C-12.90618338 10.81505231 -22.32298921 12.38902279 -29.40646362 20.33882141 Z M-59.84005737 289.26069641 C-64.85541176 295.78065711 -64.02321356 303.09024011 -64.02755737 310.94819641 C-64.03980347 312.0948175 -64.05204956 313.2414386 -64.06466675 314.42280579 C-64.08046881 323.624871 -63.87419951 331.8856338 -57.84005737 339.26069641 C-48.9202678 347.97776349 -39.54799832 347.69676638 -27.83569336 347.64837646 C-26.19424159 347.65255181 -24.55279272 347.65803043 -22.91134918 347.66469628 C-18.41084602 347.67914333 -13.91052612 347.67490846 -9.41001296 347.66752946 C-4.55236707 347.66279826 0.30523915 347.67530724 5.16287231 347.68554688 C14.67556692 347.70274127 24.1881955 347.70357353 33.70090161 347.69833397 C41.43327925 347.69429215 49.16563737 347.69573598 56.89801407 347.70108223 C57.99863669 347.70183065 59.09925932 347.70257907 60.23323414 347.70335018 C62.46917057 347.70488166 64.70510698 347.70642 66.94104339 347.70796514 C87.90847228 347.72169256 108.87586386 347.71625084 129.84329189 347.70477993 C149.02224876 347.69484782 168.20110914 347.70778743 187.38005112 347.73171412 C207.07647886 347.75610113 226.77286166 347.76571393 246.4693042 347.7590614 C257.52596029 347.75556823 268.58254218 347.75780769 279.63918686 347.77531242 C289.05170466 347.79002941 298.46409602 347.79067639 307.87661134 347.77324151 C312.67786676 347.76472495 317.47889624 347.76259804 322.28013992 347.77789307 C326.67833046 347.79173051 331.0761013 347.78698913 335.4742675 347.76765383 C337.06235068 347.76389062 338.6504674 347.76682509 340.23852073 347.77726548 C349.88111571 347.8361338 358.78431583 347.59393404 366.59744263 341.29585266 C374.14607923 331.76569895 374.34085531 323.14421287 374.34744263 311.26069641 C374.35968872 310.09796204 374.37193481 308.93522766 374.384552 307.73725891 C374.3864856 306.61061829 374.38841919 305.48397766 374.39041138 304.32319641 C374.39452026 303.30354797 374.39862915 302.28389954 374.40286255 301.23335266 C374.00945768 296.41918417 372.90555651 293.14366022 369.78494263 289.44819641 C365.66561074 286.01541984 362.28575971 286.13601138 357.02230835 286.14044189 C355.76310074 286.13906723 354.50389313 286.13769257 353.20652771 286.13627625 C351.81372046 286.13981516 350.42091346 286.14344996 349.02810669 286.14717102 C347.55955507 286.14745313 346.09100332 286.14729469 344.62245178 286.14672852 C340.6372662 286.14644148 336.65211069 286.1523231 332.66693211 286.15930247 C328.50157893 286.16555158 324.33622506 286.16614104 320.17086792 286.16732788 C312.28385856 286.1704366 304.39686306 286.17864381 296.5098598 286.18867737 C287.53049601 286.19985276 278.55113157 286.20535256 269.57176256 286.21037281 C251.10114806 286.22082679 232.63054646 286.23841736 214.15994263 286.26069641 C214.14536011 287.13806458 214.13077759 288.01543274 214.11575317 288.91938782 C214.05444583 292.19618962 213.9802493 295.47218585 213.89749146 298.74848938 C213.86437972 300.16244132 213.83630546 301.57652106 213.81350708 302.99067688 C213.77970488 305.03175464 213.72738299 307.07167569 213.67166138 309.11225891 C213.64547729 310.33767395 213.61929321 311.56308899 213.59231567 312.82563782 C213.01057263 317.44739088 211.64023787 320.91917884 208.15994263 324.07319641 C203.65242313 326.74953611 199.17374809 326.41536806 194.1020813 326.42182922 C193.1749382 326.42679413 192.2477951 326.43175903 191.29255676 326.43687439 C188.22100079 326.45149632 185.14949646 326.45829818 182.07791138 326.46382141 C179.94422911 326.46957297 177.81054686 326.4753307 175.67686462 326.48109436 C171.200437 326.49160452 166.72402734 326.49744705 162.24758911 326.50093079 C156.51423255 326.50641463 150.78111359 326.53044038 145.04783154 326.55890274 C140.63916838 326.57753533 136.23056238 326.58273506 131.82186317 326.58426666 C129.70837417 326.58729245 127.59488614 326.59531849 125.48143578 326.60845184 C122.5227697 326.62552459 119.56468303 326.62362893 116.60598755 326.61714172 C115.73460144 326.62635651 114.86321533 326.63557129 113.96542358 326.64506531 C108.94514559 326.61061947 105.51848173 326.02954088 101.15994263 323.26069641 C97.26522702 318.9630792 97.0104254 315.05561318 96.84353638 309.40522766 C96.82275528 308.74359116 96.80197418 308.08195465 96.78056335 307.40026855 C96.71529536 305.2913479 96.65628918 303.18230506 96.59744263 301.07319641 C96.55423573 299.64154327 96.51062075 298.20990237 96.46658325 296.77827454 C96.35963757 293.27254487 96.25830622 289.76667855 96.15994263 286.26069641 C76.85367512 286.19058164 57.5474335 286.13769613 38.24106503 286.1052599 C29.27656228 286.08979815 20.3121387 286.06872188 11.34768677 286.03437805 C3.53328144 286.00445448 -4.28106656 285.98511637 -12.09552759 285.97843093 C-16.2323421 285.97452368 -20.36899258 285.96535557 -24.50575447 285.94350624 C-28.40206006 285.92309431 -32.29813455 285.91687208 -36.19448853 285.92137337 C-37.62189936 285.92055027 -39.04931818 285.91461257 -40.47668266 285.90307999 C-50.6018864 285.69990568 -50.6018864 285.69990568 -59.84005737 289.26069641 Z M107.15994263 286.26069641 C107.11869263 290.83944641 107.07744263 295.41819641 107.03494263 300.13569641 C107.01673462 301.57928528 106.99852661 303.02287415 106.97976685 304.51020813 C106.97477173 305.64216614 106.96977661 306.77412415 106.96463013 307.94038391 C106.95415649 309.10295715 106.94368286 310.2655304 106.93289185 311.46333313 C106.86732266 314.39979921 106.86732266 314.39979921 109.15994263 316.26069641 C112.24519201 316.4362306 115.23958464 316.49192438 118.32400513 316.45600891 C119.23121307 316.45317902 120.13842102 316.45034912 121.07312012 316.44743347 C123.97719386 316.43621794 126.88096175 316.41111104 129.78494263 316.38569641 C131.75108401 316.37566838 133.71723022 316.36654222 135.68338013 316.35835266 C140.50911424 316.33797372 145.33418517 316.29882795 150.15994263 316.26069641 C150.15994263 306.36069641 150.15994263 296.46069641 150.15994263 286.26069641 C135.96994263 286.26069641 121.77994263 286.26069641 107.15994263 286.26069641 Z M161.15994263 286.26069641 C161.15994263 296.16069641 161.15994263 306.06069641 161.15994263 316.26069641 C166.82013739 316.30654857 172.47969074 316.34639132 178.1399231 316.37055969 C180.06637757 316.38063223 181.99281671 316.39429085 183.91921997 316.41157532 C186.68439514 316.43576882 189.44936862 316.44716677 192.21463013 316.45600891 C193.07925873 316.46633148 193.94388733 316.47665405 194.8347168 316.48728943 C196.94447784 316.48768747 199.05374981 316.38334884 201.15994263 316.26069641 C203.45256259 314.39979921 203.45256259 314.39979921 203.38699341 311.46333313 C203.37128296 309.71947327 203.37128296 309.71947327 203.35525513 307.94038391 C203.35026001 306.8084259 203.34526489 305.6764679 203.34011841 304.51020813 C203.3219104 303.06661926 203.30370239 301.6230304 203.28494263 300.13569641 C203.24369263 295.55694641 203.20244263 290.97819641 203.15994263 286.26069641 C189.29994263 286.26069641 175.43994263 286.26069641 161.15994263 286.26069641 Z " fill="#F2C94A" transform="translate(100.84005737304688,76.73930358886719)"/>
<path d="M0 0 C1.0630753 -0.00782324 2.12615061 -0.01564648 3.22144032 -0.02370679 C4.39350371 -0.01701463 5.56556711 -0.01032246 6.77314758 -0.00342751 C8.01499408 -0.00810748 9.25684057 -0.01278745 10.53631878 -0.01760924 C13.9899994 -0.02752924 17.443193 -0.02392631 20.89684439 -0.01465058 C24.61878255 -0.00788097 28.34067721 -0.01833091 32.06260681 -0.02659035 C39.35646799 -0.03995227 46.65023672 -0.03703904 53.94410157 -0.02835242 C59.87030946 -0.02158593 65.79649138 -0.02065467 71.72270203 -0.02392387 C72.5651392 -0.02438357 73.40757638 -0.02484327 74.27554196 -0.0253169 C75.98676817 -0.02627605 77.69799438 -0.02724869 79.40922058 -0.02823468 C95.46728588 -0.03679577 111.52529985 -0.02694317 127.58335674 -0.01083358 C141.37133682 0.00257026 155.15924114 0.00024237 168.94721985 -0.01358986 C184.94658691 -0.02963299 200.94590896 -0.03597173 216.94528294 -0.02675307 C218.65032513 -0.02579739 220.35536734 -0.02485428 222.06040955 -0.02392387 C223.31888318 -0.02322963 223.31888318 -0.02322963 224.60278052 -0.02252137 C230.5240316 -0.01992767 236.44525419 -0.02431064 242.36650085 -0.03136253 C249.57943958 -0.03976368 256.79228032 -0.0375267 264.00520778 -0.0215203 C267.68758969 -0.01361881 271.36980806 -0.01057772 275.05218887 -0.02046776 C279.03820704 -0.03101164 283.02395554 -0.01844901 287.00996399 -0.00342751 C288.18202739 -0.01011967 289.35409079 -0.01681184 290.56167126 -0.02370679 C292.15628421 -0.01197193 292.15628421 -0.01197193 293.78311157 0 C294.70382604 0.00048706 295.6245405 0.00097411 296.5731554 0.00147593 C298.89155579 0.37752342 298.89155579 0.37752342 300.68706375 1.6960429 C302.6683265 4.46190156 302.30670444 7.54114327 302.27923584 10.81734276 C302.28731415 11.96344906 302.28731415 11.96344906 302.29555565 13.13270903 C302.30989818 15.70080433 302.30271621 18.26838875 302.29560852 20.8365078 C302.30130877 22.67442809 302.30827168 24.51234484 302.31640625 26.35025597 C302.33438991 31.34810505 302.33315964 36.34577906 302.32746387 41.34365082 C302.32437986 45.511427 302.33045558 49.67916917 302.33650261 53.84694052 C302.35056302 63.67601109 302.34897364 73.50499478 302.33760071 83.33406639 C302.32611452 93.48556227 302.34020017 103.63679413 302.36699718 113.78825521 C302.38912258 122.49489123 302.39579881 131.20144418 302.38992077 139.90810633 C302.38654282 145.11226566 302.38902179 150.31625568 302.4061718 155.52039146 C302.42158886 160.41240063 302.41774395 165.30401723 302.39886665 170.19601059 C302.39516635 171.99436618 302.39833092 173.79275052 302.40875244 175.59107971 C302.42186611 178.04041321 302.41050208 180.48842849 302.39276123 182.93770409 C302.40236624 183.65452653 302.41197124 184.37134898 302.42186731 185.10989332 C302.34976117 189.92602116 302.34976117 189.92602116 300.18511158 192.05900395 C297.45590636 193.62796958 295.82908034 193.75337574 292.6940918 193.75504684 C291.63660893 193.76287009 290.57912607 193.77069333 289.48959827 193.77875364 C288.32891173 193.77206147 287.16822519 193.76536931 285.97236633 193.75847435 C284.73853808 193.76315432 283.50470984 193.76783429 282.23349285 193.77265608 C278.80680356 193.78256544 275.38060619 193.7789807 271.95394659 193.76969743 C268.25927362 193.76292101 264.56464422 193.77338116 260.86997986 193.78163719 C253.63139959 193.7949918 246.39291253 193.79208912 239.15432858 193.78339927 C233.27248954 193.77662991 227.39067666 193.77570276 221.50883484 193.77897072 C220.6723726 193.77943042 219.83591035 193.77989012 218.97410077 193.78036375 C217.27495582 193.7813229 215.57581088 193.78229554 213.87666595 193.78328152 C197.93588146 193.79184047 181.99514868 193.78199337 166.05437267 193.76588042 C152.37019166 193.75247678 138.68608698 193.75480473 125.00190735 193.7686367 C109.11898573 193.7846836 93.23610947 193.79101645 77.35318089 193.78179991 C75.66021284 193.78084424 73.96724479 193.77990113 72.27427673 193.77897072 C71.02474898 193.77827648 71.02474898 193.77827648 69.74997824 193.77756821 C63.873769 193.77497565 57.99758847 193.77935505 52.12138367 193.78640938 C44.96229628 193.7948147 37.8033076 193.7925647 30.64423156 193.77656715 C26.99007213 193.76867132 23.33607739 193.765615 19.6819191 193.7755146 C15.72476757 193.78607308 11.767887 193.77348399 7.81074524 193.75847435 C6.6500587 193.76516652 5.48937216 193.77185868 4.2935133 193.77875364 C3.23603044 193.7709304 2.17854757 193.76310715 1.08901978 193.75504684 C-0.28155594 193.75431626 -0.28155594 193.75431626 -1.67982006 193.75357091 C-4.62288277 193.2978679 -5.99644261 192.45862842 -8.10844421 190.37752342 C-8.50781704 187.75966062 -8.64475201 185.55739553 -8.60964966 182.93770409 C-8.61518405 182.17363322 -8.62071845 181.40956235 -8.62642056 180.62233782 C-8.64006779 178.0540771 -8.62503645 175.48678139 -8.6101532 172.91853905 C-8.61393491 171.08061878 -8.61943372 169.24270135 -8.62652588 167.40479088 C-8.64051711 162.406872 -8.62928503 157.40929596 -8.61281466 152.41139603 C-8.59899118 147.18774058 -8.60542115 141.96410558 -8.60894775 136.74043846 C-8.61165202 127.96722941 -8.59815568 119.194157 -8.57499695 110.42098045 C-8.54838587 100.26951565 -8.54663932 90.11827936 -8.55838531 79.96679163 C-8.5691544 70.21228955 -8.56298285 60.45787035 -8.54883003 50.70337486 C-8.54306268 46.54711517 -8.54315879 42.39091598 -8.54789543 38.23465538 C-8.55265827 33.34268271 -8.54259237 28.45096113 -8.52094078 23.55903625 C-8.51536326 21.7606885 -8.51491642 19.96231665 -8.51989365 18.16396713 C-8.52582335 15.71481115 -8.5133866 13.26642889 -8.49612427 10.81734276 C-8.50213431 10.10052031 -8.50814436 9.38369786 -8.51433653 8.64515352 C-8.45270228 3.85811044 -8.45270228 3.85811044 -6.90395218 1.6960429 C-4.49683252 -0.0716096 -2.97422427 0.00157336 0 0 Z M2.89155579 11.37752342 C2.89155579 67.80752342 2.89155579 124.23752342 2.89155579 182.37752342 C97.93155579 182.37752342 192.97155579 182.37752342 290.89155579 182.37752342 C290.89155579 125.94752342 290.89155579 69.51752342 290.89155579 11.37752342 C195.85155579 11.37752342 100.81155579 11.37752342 2.89155579 11.37752342 Z " fill="#F2CA4B" transform="translate(109.10844421386719,123.62247657775879)"/>
<path d="M0 0 C0.82558771 -0.00583219 1.65117541 -0.01166439 2.50178093 -0.01767331 C3.86197612 -0.01200433 3.86197612 -0.01200433 5.24965 -0.00622082 C6.21310937 -0.01004636 7.17656874 -0.01387191 8.16922385 -0.01781338 C11.41203482 -0.02816898 14.65466958 -0.02414637 17.89749241 -0.02018261 C20.21654011 -0.02452766 22.53558636 -0.02971011 24.85463047 -0.03567028 C31.16445362 -0.04909361 37.474217 -0.04963526 43.78405166 -0.04710698 C49.04527 -0.04603955 54.30647613 -0.05091476 59.56769186 -0.0557124 C72.68627938 -0.06745471 85.80483273 -0.06657591 98.92342246 -0.06015559 C110.32104974 -0.05498587 121.71859156 -0.0662422 133.11620193 -0.08525381 C144.81421394 -0.1046172 156.51218182 -0.11259918 168.21020991 -0.10913056 C174.77979295 -0.10731391 181.34929772 -0.10999189 187.91886806 -0.1238451 C194.0953165 -0.13638128 200.27159339 -0.1345193 206.44803905 -0.12143421 C208.71845526 -0.1190597 210.98888337 -0.1218342 213.25928593 -0.13005733 C216.35173456 -0.14045253 219.44359986 -0.13248229 222.53602695 -0.11974621 C223.89287606 -0.13080764 223.89287606 -0.13080764 225.27713627 -0.14209253 C231.37255501 -0.08905324 231.37255501 -0.08905324 234.54509926 1.77786446 C235.0108055 2.26514613 235.47651175 2.75242781 235.9563303 3.25447559 C235.0813303 10.12947559 235.0813303 10.12947559 233.9563303 11.25447559 C230.89129327 11.35918263 227.84857829 11.3977893 224.7828989 11.39491749 C223.80819216 11.39788861 222.83348542 11.40085973 221.82924211 11.40392089 C218.53647264 11.41264907 215.24373935 11.41411959 211.95095921 11.41560841 C209.6010286 11.42023365 207.25109874 11.4252579 204.90116978 11.43065357 C197.8299501 11.44518052 190.7587382 11.4511654 183.68750626 11.45604908 C180.36059296 11.45862401 177.03368117 11.46244239 173.70676899 11.4661684 C162.65266223 11.47836361 151.59855743 11.48866236 140.54444408 11.4920435 C139.48249016 11.49237284 139.48249016 11.49237284 138.39908262 11.49270885 C137.33453549 11.49303626 137.33453549 11.49303626 136.24848235 11.49337029 C134.81027802 11.49381377 133.37207369 11.49426033 131.93386936 11.49470997 C131.22046486 11.4949314 130.50706037 11.49515283 129.77203755 11.49538097 C118.20871615 11.49933014 106.64545773 11.51678665 95.08216067 11.54006949 C83.22037183 11.56376126 71.35861462 11.57624436 59.49680173 11.57741141 C52.83276062 11.57832941 46.1687972 11.58442946 39.50478077 11.60223103 C33.23890804 11.61864268 26.97319145 11.62090095 20.70730495 11.61209202 C18.40260305 11.61131794 16.09789298 11.61571272 13.79321194 11.62555027 C10.65652851 11.63815799 7.5204075 11.63245408 4.38372898 11.62196827 C3.00295498 11.63405288 3.00295498 11.63405288 1.59428656 11.64638162 C0.75639857 11.63979177 -0.08148942 11.63320193 -0.94476795 11.62641239 C-1.66911199 11.62700948 -2.39345603 11.62760657 -3.13974988 11.62822175 C-5.63407694 11.13857658 -6.54326484 10.27947821 -8.0436697 8.25447559 C-7.9186697 5.19197559 -7.9186697 5.19197559 -7.0436697 2.25447559 C-3.99673132 0.22318334 -3.4184593 0.00415222 0 0 Z " fill="#F1C94A" transform="translate(140.04366970062256,270.7455244064331)"/>
<path d="M0 0 C0.82409536 -0.00583219 1.64819072 -0.01166439 2.49725866 -0.01767331 C3.84724817 -0.01200433 3.84724817 -0.01200433 5.22451019 -0.00622082 C6.18474043 -0.01004636 7.14497067 -0.01387191 8.1342988 -0.01781338 C11.36018463 -0.02815353 14.5858928 -0.0241493 17.81179047 -0.02018261 C20.12113358 -0.02452848 22.43047525 -0.02971121 24.73981476 -0.03567028 C31.01858804 -0.04908393 37.29730122 -0.04963639 43.57608604 -0.04710698 C48.8125013 -0.04603902 54.04890431 -0.05091606 59.28531694 -0.0557124 C72.34135842 -0.06745069 85.39736556 -0.06657779 98.45340925 -0.06015559 C109.79600763 -0.05498469 121.13852018 -0.06624598 132.48110157 -0.08525381 C144.12490468 -0.10461704 155.76866347 -0.11259929 167.41248274 -0.10913056 C173.95075189 -0.10731406 180.4889424 -0.10999049 187.02719879 -0.1238451 C193.17329206 -0.13638101 199.31921293 -0.13451957 205.46530342 -0.12143421 C207.72443257 -0.11905974 209.9835737 -0.12183405 212.24268913 -0.13005733 C215.31975854 -0.14045276 218.39624172 -0.13248215 221.47328949 -0.11974621 C222.823279 -0.13080764 222.823279 -0.13080764 224.20054102 -0.14209253 C230.26575401 -0.0890535 230.26575401 -0.0890535 233.43487549 1.77786446 C233.90150352 2.26514613 234.36813156 2.75242781 234.84889984 3.25447559 C233.97389984 10.12947559 233.97389984 10.12947559 232.84889984 11.25447559 C229.76900043 11.35918926 226.71131492 11.39778902 223.63077545 11.39491749 C222.16153166 11.39937417 222.16153166 11.39937417 220.66260618 11.40392089 C217.35368324 11.41264907 214.0447963 11.41411959 210.73586273 11.41560841 C208.37445752 11.42023362 206.01305305 11.42525787 203.65164948 11.43065357 C197.21789661 11.44380697 190.78415068 11.45026433 184.35038686 11.45466423 C180.33632922 11.45742336 176.322274 11.46166008 172.308218 11.4661684 C161.20349688 11.47836303 150.0987777 11.48866223 138.99405003 11.4920435 C138.28286157 11.49226306 137.57167311 11.49248263 136.83893349 11.49270885 C135.76954075 11.49303626 135.76954075 11.49303626 134.6785441 11.49337029 C133.23378312 11.49381377 131.78902215 11.49426033 130.34426117 11.49470997 C129.62760375 11.4949314 128.91094632 11.49515283 128.17257201 11.49538097 C116.55360972 11.4993311 104.93471008 11.51679077 93.315772 11.54006949 C81.3986174 11.56375382 69.48149427 11.576244 57.56431574 11.57741141 C50.86844787 11.57832978 44.17266163 11.58412256 37.47681618 11.60223103 C31.18221961 11.61863132 24.88777849 11.62090657 18.59316826 11.61209202 C16.27675843 11.61131735 13.96034052 11.6157204 11.64395142 11.62555027 C8.49378136 11.63813939 5.34417282 11.6324645 2.19400787 11.62196827 C1.26668809 11.63002467 0.3393683 11.63808108 -0.61605209 11.64638162 C-1.45543243 11.63979177 -2.29481276 11.63320193 -3.15962887 11.62641239 C-3.88739039 11.62700948 -4.61515191 11.62760657 -5.36496681 11.62822175 C-7.15110016 11.25447559 -7.15110016 11.25447559 -9.15110016 8.25447559 C-9.02610016 5.19197559 -9.02610016 5.19197559 -8.15110016 2.25447559 C-5.40902245 0.47093279 -3.23587307 0.00394936 0 0 Z " fill="#F1CA4A" transform="translate(141.1511001586914,239.7455244064331)"/>
<path d="M0 0 C1.37333496 -0.01062721 1.37333496 -0.01062721 2.77441406 -0.02146912 C4.28540428 -0.01775299 4.28540428 -0.01775299 5.82691956 -0.01396179 C6.88553192 -0.01907272 7.94414429 -0.02418365 9.03483582 -0.02944946 C12.54835093 -0.0433957 16.061671 -0.0423849 19.57521057 -0.04008484 C22.00897292 -0.043969 24.44273458 -0.04830308 26.87649536 -0.05307007 C31.98352758 -0.06054312 37.09049068 -0.06023314 42.19752502 -0.05497742 C48.75290683 -0.04918141 55.30800624 -0.06611196 61.86334133 -0.08932209 C66.89125227 -0.10403014 71.91909475 -0.10493512 76.94702339 -0.10181236 C79.36442181 -0.10232705 81.78182392 -0.10759224 84.19920158 -0.11762428 C87.57529603 -0.1299145 90.95083449 -0.12324136 94.32691956 -0.11161804 C95.33222214 -0.11926178 96.33752472 -0.12690552 97.37329102 -0.13478088 C98.29166748 -0.12776657 99.21004395 -0.12075226 100.15625 -0.11352539 C100.95469047 -0.11369313 101.75313093 -0.11386087 102.57576656 -0.1140337 C105.17261527 0.35701564 106.05904272 1.18192605 107.64161682 3.26069641 C108.01661682 5.76069641 108.01661682 5.76069641 107.64161682 8.26069641 C106.0647334 10.32681569 105.17623669 11.16211889 102.59417725 11.63821983 C101.80440994 11.63935091 101.01464264 11.64048199 100.20094299 11.64164734 C98.83816727 11.65433655 98.83816727 11.65433655 97.44786072 11.6672821 C96.45347992 11.66120941 95.45909912 11.65513672 94.43458557 11.64888 C92.86107834 11.65676544 92.86107834 11.65676544 91.25578308 11.66481018 C87.78007725 11.67803954 84.3048275 11.66926145 80.82911682 11.65913391 C78.41920381 11.66115379 76.0092914 11.66406451 73.59938049 11.66783142 C68.5453663 11.67225877 63.49151101 11.66581036 58.43751526 11.65180969 C51.95052441 11.63471778 45.46390589 11.64455674 38.97692871 11.66252708 C33.99962037 11.67335373 29.02240069 11.66992369 24.04508972 11.66214371 C21.65281633 11.66013861 19.26053495 11.66261178 16.86827087 11.66958237 C13.52817885 11.67717825 10.18869468 11.66561824 6.84864807 11.64888 C5.85426727 11.6549527 4.85988647 11.66102539 3.83537292 11.6672821 C2.92685577 11.65882263 2.01833862 11.65036316 1.08229065 11.64164734 C-0.10236031 11.63995072 -0.10236031 11.63995072 -1.3109436 11.63821983 C-3.90618627 11.15968806 -4.79526033 10.35947378 -6.35838318 8.26069641 C-6.67088318 5.19819641 -6.67088318 5.19819641 -6.35838318 2.26069641 C-3.92654741 -0.17113936 -3.33035442 0.00856672 0 0 Z " fill="#F2CA4A" transform="translate(268.35838317871094,168.7393035888672)"/>
<path d="M0 0 C0.92541595 -0.00708481 1.85083191 -0.01416962 2.80429077 -0.02146912 C4.33166367 -0.01775299 4.33166367 -0.01775299 5.88989258 -0.01396179 C7.49485092 -0.02162819 7.49485092 -0.02162819 9.13223267 -0.02944946 C12.68301932 -0.0433948 16.23361298 -0.04238511 19.78442383 -0.04008484 C22.24300204 -0.04396876 24.70157959 -0.04830279 27.16015625 -0.05307007 C32.31846286 -0.06054272 37.47670105 -0.06023322 42.63500977 -0.05497742 C49.25999106 -0.04917835 55.88469319 -0.06611957 62.5096283 -0.08932209 C67.58811086 -0.10402053 72.66652557 -0.1049365 77.74502563 -0.10181236 C80.1883703 -0.10232743 82.63171857 -0.10759972 85.07504272 -0.11762428 C88.48486732 -0.12989739 91.89413998 -0.12325208 95.30395508 -0.11161804 C96.32220367 -0.11926178 97.34045227 -0.12690552 98.38955688 -0.13478088 C99.77768082 -0.12425941 99.77768082 -0.12425941 101.19384766 -0.11352539 C102.00058426 -0.11369313 102.80732086 -0.11386087 103.63850403 -0.1140337 C104.60792183 0.07145771 104.60792183 0.07145771 105.59692383 0.26069641 C107.74454567 3.48212917 108.15799182 4.52024311 107.59692383 8.26069641 C104.8075357 10.87233474 102.90643019 11.6361035 99.11865234 11.64164734 C98.227034 11.65010681 97.33541565 11.65856628 96.41677856 11.6672821 C95.44626556 11.66120941 94.47575256 11.65513672 93.47583008 11.64888 C92.44779266 11.65413696 91.41975525 11.65939392 90.36056519 11.66481018 C86.9600305 11.67802137 83.55996334 11.66926787 80.15942383 11.65913391 C77.79817617 11.66115432 75.43692912 11.66406548 73.07568359 11.66783142 C68.12599753 11.6722563 63.17647384 11.66581827 58.22680664 11.65180969 C51.87782365 11.63471792 45.5292211 11.6445582 39.18025208 11.66252708 C34.3041293 11.67336036 29.42809692 11.66992063 24.55197144 11.66214371 C22.21076411 11.66014045 19.86954862 11.66260536 17.52835083 11.66958237 C14.25801812 11.67718913 10.98830413 11.6656029 7.71801758 11.64888 C6.74750458 11.6549527 5.77699158 11.66102539 4.77706909 11.6672821 C3.88545074 11.65882263 2.9938324 11.65036316 2.07519531 11.64164734 C0.91599831 11.63995072 0.91599831 11.63995072 -0.26661682 11.63821983 C-3.01294457 11.15292951 -4.39905756 10.17742012 -6.40307617 8.26069641 C-6.77807617 5.19819641 -6.77807617 5.19819641 -6.40307617 2.26069641 C-3.9627706 -0.17960916 -3.34574808 0.00851379 0 0 Z " fill="#F1CA4B" transform="translate(268.403076171875,195.7393035888672)"/>
<path d="M0 0 C3.5 -0.3125 3.5 -0.3125 7 0 C9 2 9 2 9.30981445 4.87792969 C9.14044969 10.39529548 7.48239054 15.65802976 6.04296875 20.953125 C5.73933914 22.09029968 5.43570953 23.22747437 5.12287903 24.39910889 C4.48073988 26.7939415 3.83413592 29.18758087 3.18334961 31.58007812 C2.18813595 35.24765639 1.21336573 38.92025895 0.24023438 42.59375 C-0.3867967 44.92220499 -1.01501125 47.25034168 -1.64453125 49.578125 C-1.9352803 50.67811829 -2.22602936 51.77811157 -2.52558899 52.91143799 C-2.80565292 53.92969666 -3.08571686 54.94795532 -3.37426758 55.99707031 C-3.61631424 56.89306946 -3.8583609 57.7890686 -4.10774231 58.71221924 C-5.06934216 61.17779579 -5.89977258 62.40567443 -8 64 C-11.0625 64.3125 -11.0625 64.3125 -14 64 C-16 62 -16 62 -16.31201172 59.12207031 C-16.14262284 53.60102371 -14.46211729 48.34076905 -13.0078125 43.046875 C-12.54881058 41.34111298 -12.54881058 41.34111298 -12.08053589 39.60089111 C-11.43403678 37.20609505 -10.78324037 34.81245545 -10.12841797 32.41992188 C-9.12543007 28.75157296 -8.13788537 25.07931991 -7.15234375 21.40625 C-6.52174233 19.07787862 -5.89026221 16.74974501 -5.2578125 14.421875 C-4.96190216 13.32188171 -4.66599182 12.22188843 -4.3611145 11.08856201 C-4.08097504 10.07030334 -3.80083557 9.05204468 -3.51220703 8.00292969 C-3.26793976 7.10693054 -3.02367249 6.2109314 -2.77200317 5.28778076 C-2 3 -2 3 0 0 Z " fill="#F2CA4A" transform="translate(194,156)"/>
<path d="M0 0 C2.7587435 1.78964087 5.10227031 3.94549914 7.5 6.1875 C8.76029247 7.3269603 10.02070861 8.46628383 11.28125 9.60546875 C11.8896875 10.17442871 12.498125 10.74338867 13.125 11.32958984 C14.98162916 13.03582958 14.98162916 13.03582958 17.0625 14.51806641 C18.93610141 15.91722659 20.52180996 17.18772807 22 19 C22.36550051 22.67553882 22.08216026 24.67599796 19.70654297 27.58251953 C18.02271805 29.19166912 16.27383519 30.63015384 14.4375 32.0625 C13.80142822 32.57981689 13.16535645 33.09713379 12.51000977 33.63012695 C10.68669618 35.10452768 8.8451448 36.55309545 7 38 C6.1646875 38.68320313 5.329375 39.36640625 4.46875 40.0703125 C-2.0021011 45.22210549 -2.0021011 45.22210549 -6 45 C-8.375 43.4375 -8.375 43.4375 -10 41 C-10.00425759 37.96008429 -9.73521417 35.86511515 -7.72460938 33.49926758 C-6.05828187 31.97851428 -4.34150557 30.57455354 -2.5625 29.1875 C-1.96373047 28.69830078 -1.36496094 28.20910156 -0.74804688 27.70507812 C3.55080244 24.22459878 3.55080244 24.22459878 6 23 C4.22974342 18.0057662 -0.32556313 15.31885166 -4.38867188 12.2421875 C-7.43774721 9.80566489 -8.8171668 8.61215812 -9.96484375 4.76953125 C-10 2 -10 2 -9 0.0625 C-5.72711716 -1.67621901 -3.54296859 -0.87854099 0 0 Z " fill="#F2CA4B" transform="translate(225,166)"/>
<path d="M0 0 C0.969375 0.309375 1.93875 0.61875 2.9375 0.9375 C3.875 4 3.875 4 3.9375 7.9375 C0.50382604 13.12793739 -5.3055815 16.80059596 -10.2421875 20.45703125 C-12.17674063 21.82287596 -12.17674063 21.82287596 -13.0625 23.9375 C-12.28132812 24.27007812 -12.28132812 24.27007812 -11.484375 24.609375 C-8.1225313 26.45296671 -5.27142113 28.76183498 -2.3125 31.1875 C-1.71050781 31.65285156 -1.10851562 32.11820313 -0.48828125 32.59765625 C2.45714357 35.02212158 3.84609548 36.33684175 4.4296875 40.171875 C3.9375 42.9375 3.9375 42.9375 2.3125 44.9375 C-0.0625 45.9375 -0.0625 45.9375 -2.8125 45.32421875 C-6.60703767 43.7051552 -9.39647771 41.46578414 -12.4375 38.75 C-13.00114258 38.25677246 -13.56478516 37.76354492 -14.14550781 37.25537109 C-15.26931217 36.27147941 -16.39048093 35.28456793 -17.50878906 34.29443359 C-18.86371929 33.11110515 -20.25343384 31.96784238 -21.6484375 30.83203125 C-22.71964844 29.95611328 -22.71964844 29.95611328 -23.8125 29.0625 C-24.42609375 28.57007813 -25.0396875 28.07765625 -25.671875 27.5703125 C-27.59203946 25.31573737 -28.00942757 23.9007107 -28.0625 20.9375 C-24.95834436 16.05202502 -20.42619391 12.79354071 -15.94140625 9.234375 C-14.12474181 7.78498736 -12.33592689 6.2993094 -10.58984375 4.765625 C-4.33430328 -0.59933252 -4.33430328 -0.59933252 0 0 Z " fill="#F2CA4A" transform="translate(160.0625,165.0625)"/>
<path d="M0 0 C0.92425781 -0.00386719 1.84851563 -0.00773437 2.80078125 -0.01171875 C4.24517578 0.00568359 4.24517578 0.00568359 5.71875 0.0234375 C6.68167969 0.01183594 7.64460938 0.00023437 8.63671875 -0.01171875 C9.56097656 -0.00785156 10.48523438 -0.00398438 11.4375 0 C12.28248047 0.00338379 13.12746094 0.00676758 13.99804688 0.01025391 C16.71061932 0.4844173 17.60457423 1.19476474 19.21875 3.3984375 C19.53125 6.4609375 19.53125 6.4609375 19.21875 9.3984375 C16.23226437 12.38492313 13.45327507 11.69093144 9.36914062 11.72070312 C8.35013672 11.71748047 7.33113281 11.71425781 6.28125 11.7109375 C5.26611328 11.72705078 4.25097656 11.74316406 3.20507812 11.75976562 C1.74424805 11.76073242 1.74424805 11.76073242 0.25390625 11.76171875 C-1.08595337 11.76619019 -1.08595337 11.76619019 -2.45288086 11.77075195 C-5.23750781 11.32548026 -6.12084623 10.64238046 -7.78125 8.3984375 C-8.15625 5.8984375 -8.15625 5.8984375 -7.78125 3.3984375 C-5.47827673 0.33056122 -3.75063738 0.01501971 0 0 Z " fill="#F2CA4A" transform="translate(393.78125,387.6015625)"/>
<path d="M0 0 C0.92748047 -0.00257813 1.85496094 -0.00515625 2.81054688 -0.0078125 C4.26750977 0.00378906 4.26750977 0.00378906 5.75390625 0.015625 C7.20506836 0.00402344 7.20506836 0.00402344 8.68554688 -0.0078125 C10.07870117 -0.00394531 10.07870117 -0.00394531 11.5 0 C12.35134521 0.00225586 13.20269043 0.00451172 14.07983398 0.00683594 C16.31640625 0.265625 16.31640625 0.265625 19.31640625 2.265625 C19.62890625 5.765625 19.62890625 5.765625 19.31640625 9.265625 C16.32992062 12.25211063 13.55093132 11.55811894 9.46679688 11.58789062 C8.44779297 11.58466797 7.42878906 11.58144531 6.37890625 11.578125 C5.36376953 11.59423828 4.34863281 11.61035156 3.30273438 11.62695312 C1.8419043 11.62791992 1.8419043 11.62791992 0.3515625 11.62890625 C-0.98829712 11.63337769 -0.98829712 11.63337769 -2.35522461 11.63793945 C-4.68359375 11.265625 -4.68359375 11.265625 -6.51000977 9.93432617 C-7.68359375 8.265625 -7.68359375 8.265625 -7.49609375 5.203125 C-6.18582847 0.46601206 -4.59818808 0.01220025 0 0 Z " fill="#F2CA4A" transform="translate(430.68359375,387.734375)"/>
<path d="M0 0 C1.45116211 -0.0309375 1.45116211 -0.0309375 2.93164062 -0.0625 C4.32479492 -0.07023437 4.32479492 -0.07023437 5.74609375 -0.078125 C7.02311157 -0.09214355 7.02311157 -0.09214355 8.32592773 -0.10644531 C10.5625 0.25 10.5625 0.25 12.37524414 1.54394531 C13.5625 3.25 13.5625 3.25 13.375 6.875 C13.106875 7.98875 12.83875 9.1025 12.5625 10.25 C8.80095432 12.13077284 4.26426726 11.47802645 0.125 11.5 C-1.32616211 11.5309375 -1.32616211 11.5309375 -2.80664062 11.5625 C-4.19979492 11.57023437 -4.19979492 11.57023437 -5.62109375 11.578125 C-6.89811157 11.59214355 -6.89811157 11.59214355 -8.20092773 11.60644531 C-10.4375 11.25 -10.4375 11.25 -12.25024414 9.95605469 C-13.4375 8.25 -13.4375 8.25 -13.25 4.625 C-12.981875 3.51125 -12.71375 2.3975 -12.4375 1.25 C-8.67595432 -0.63077284 -4.13926726 0.02197355 0 0 Z " fill="#F2CA4A" transform="translate(362.4375,387.75)"/>
</svg>
