<?xml version="1.0" encoding="UTF-8"?>
<svg version="1.1" xmlns="http://www.w3.org/2000/svg" width="512" height="512">
<path d="M0 0 C0.62003906 0.41507813 1.24007812 0.83015625 1.87890625 1.2578125 C2.91724609 1.91136719 2.91724609 1.91136719 3.9765625 2.578125 C10.78283931 7.23438166 15.75320733 13.61721513 18.87890625 21.2578125 C18.87890625 22.5778125 18.87890625 23.8978125 18.87890625 25.2578125 C19.47840088 25.24210205 20.07789551 25.2263916 20.69555664 25.21020508 C23.44407502 25.1473712 26.19244167 25.10867015 28.94140625 25.0703125 C29.88435547 25.04517578 30.82730469 25.02003906 31.79882812 24.99414062 C38.73289971 24.92165904 43.65576971 25.64445855 49.19140625 30.1328125 C52.41720555 34.19493014 52.97543528 37.33141064 52.92578125 42.4375 C52.91901367 43.33968262 52.91224609 44.24186523 52.90527344 45.17138672 C52.89222168 46.20416748 52.89222168 46.20416748 52.87890625 47.2578125 C53.96805328 47.24893005 55.05720032 47.24004761 56.17935181 47.230896 C66.44929325 47.14976879 76.71916958 47.08982716 86.9893589 47.05056381 C92.26924634 47.02969939 97.54887485 47.00140238 102.82861328 46.95605469 C107.92497677 46.9125565 113.02109138 46.88866677 118.11762619 46.87830353 C120.06088554 46.87091932 122.00413145 46.85649962 123.9472847 46.83489227 C126.6716976 46.80580553 129.39508542 46.8018587 132.11962891 46.80371094 C133.32156891 46.78213928 133.32156891 46.78213928 134.54779053 46.76013184 C139.77879631 46.7985501 142.72123946 47.80981275 146.87890625 51.2578125 C150.06236378 55.6487884 151.01273877 59.45059892 150.9765625 64.8046875 C150.97333984 65.64902344 150.97011719 66.49335937 150.96679688 67.36328125 C150.95841797 68.23597656 150.95003906 69.10867187 150.94140625 70.0078125 C150.93689453 70.89597656 150.93238281 71.78414063 150.92773438 72.69921875 C150.91598025 74.88548579 150.89954874 77.07161429 150.87890625 79.2578125 C152.76609375 79.19400391 152.76609375 79.19400391 154.69140625 79.12890625 C158.20631305 79.01006207 158.77967511 79.18959109 161.87890625 81.3203125 C164.31912707 84.90438682 164.29559094 87.00762871 163.87890625 91.2578125 C164.55953125 91.3609375 165.24015625 91.4640625 165.94140625 91.5703125 C168.87890625 92.2578125 168.87890625 92.2578125 172.44140625 93.8828125 C175.61337318 95.44880997 175.61337318 95.44880997 178.12890625 95.0703125 C180.15638858 94.18313091 180.15638858 94.18313091 182.87890625 92.2578125 C186.11974589 91.70851765 187.79523455 91.44398891 190.87890625 92.2578125 C193.1552083 93.9969601 194.95432672 95.9046409 196.86328125 98.0390625 C198.82570696 100.19925204 200.86963691 101.97942637 203.12890625 103.8203125 C206.80932816 107.01436701 208.98921827 109.73899342 210.87890625 114.2578125 C210.80698812 117.85371911 210.3234458 119.64565968 208.2109375 122.5546875 C206.57461224 125.21741456 206.57461224 125.21741456 207.36328125 128.265625 C209.57372346 134.31777788 209.57372346 134.31777788 214.12109375 138.52734375 C216.46730934 139.23885018 216.46730934 139.23885018 218.79296875 139.53515625 C221.89511999 140.60987157 222.45497935 142.36152072 223.87890625 145.2578125 C224.2512207 148.14868164 224.2512207 148.14868164 224.2421875 151.29296875 C224.24154297 152.43185547 224.24089844 153.57074219 224.24023438 154.74414062 C224.22412109 155.92427734 224.20800781 157.10441406 224.19140625 158.3203125 C224.19624023 160.09631836 224.19624023 160.09631836 224.20117188 161.90820312 C224.13913962 171.86156044 224.13913962 171.86156044 221.87890625 175.2578125 C218.87890625 177.2578125 218.87890625 177.2578125 211.87890625 178.2578125 C210.22890625 182.8778125 208.57890625 187.4978125 206.87890625 192.2578125 C208.36390625 193.7428125 208.36390625 193.7428125 209.87890625 195.2578125 C210.78212408 198.74165272 211.38829344 201.11823484 209.890625 204.46875 C206.93900586 208.5608977 203.40775231 211.97679851 199.81640625 215.5078125 C199.08357422 216.24 198.35074219 216.9721875 197.59570312 217.7265625 C191.12138934 224.14736956 191.12138934 224.14736956 187.06640625 224.5078125 C183.87890625 224.2578125 183.87890625 224.2578125 181.31640625 222.6953125 C178.2126285 220.86487947 177.29675301 221.38093053 173.87890625 222.2578125 C172.1022411 222.75839115 170.33112747 223.27913133 168.56640625 223.8203125 C167.68339844 224.08972656 166.80039062 224.35914063 165.890625 224.63671875 C165.22675781 224.84167969 164.56289063 225.04664063 163.87890625 225.2578125 C163.96140625 226.3303125 164.04390625 227.4028125 164.12890625 228.5078125 C163.87890625 232.2578125 163.87890625 232.2578125 162.00390625 234.6328125 C157.70854651 237.91749936 157.34178513 237.2578125 150.87890625 237.2578125 C151.20890625 247.4878125 151.53890625 257.7178125 151.87890625 268.2578125 C153.66296875 266.43894531 155.44703125 264.62007813 157.28515625 262.74609375 C159.03754011 260.97024672 160.79256201 259.19704676 162.54785156 257.42407227 C163.75700901 256.19992126 164.96344913 254.97307951 166.16699219 253.7434082 C167.90745511 251.96614445 169.65778722 250.19911023 171.41015625 248.43359375 C171.93758423 247.89068192 172.46501221 247.34777008 173.00842285 246.78840637 C180.60177312 239.19174685 188.34355514 235.27658695 199.19140625 234.8828125 C207.28661626 235.04081315 213.70512909 236.93477398 219.75390625 242.4453125 C226.3235888 249.8226156 227.57258196 256.81461357 227.25 266.609375 C226.20567147 276.87677339 221.15832529 283.22489155 213.87890625 290.2578125 C211.12305073 292.50112052 208.23086591 294.54533897 205.33578777 296.60352325 C182.62492471 312.77006789 154.77689345 333.54831 149.46001625 362.49103069 C145.3477933 390.82233978 147.29070502 420.405384 149.78865051 448.82040405 C149.87846443 449.87938369 149.96827835 450.93836332 150.0608139 452.02943325 C150.23243271 453.98945705 150.41974035 455.94820285 150.6264267 457.90483952 C151.13498877 463.63913139 150.72319491 467.20250871 147.87890625 472.2578125 C143.74689719 476.08747944 141.28468909 477.38160756 135.73009872 477.39203358 C134.63254721 477.39649142 133.5349957 477.40094926 132.40418506 477.40554219 C131.18845474 477.40535783 129.97272443 477.40517347 128.72015381 477.40498352 C127.43635936 477.40866021 126.15256491 477.4123369 124.8298676 477.416125 C121.25447268 477.42616162 117.67909454 477.42986446 114.10368752 477.43251431 C110.25216725 477.43641245 106.40066033 477.44599113 102.54914856 477.45472717 C93.24175599 477.47450558 83.9343623 477.48455958 74.62695396 477.49345496 C70.24645216 477.49783565 65.86595158 477.50320303 61.48545074 477.50844383 C46.92790859 477.52545757 32.37036719 477.53995239 17.81281662 477.54719257 C14.03357696 477.54910254 10.2543373 477.55102286 6.47509766 477.55297852 C5.53575887 477.55346226 4.59642008 477.553946 3.62861648 477.5544444 C-11.59267713 477.56274709 -26.81389221 477.5880874 -42.03515151 477.62055919 C-57.65427679 477.65360873 -73.27336214 477.67163943 -88.89252257 477.67483681 C-97.66544064 477.67700388 -106.4382442 477.68578115 -115.21112823 477.71129799 C-122.68165567 477.73297628 -130.15204079 477.74106962 -137.62259611 477.73133121 C-141.43501624 477.7267781 -145.24714256 477.72873094 -149.05952263 477.74809265 C-153.1913587 477.76889575 -157.32253964 477.75876615 -161.45440674 477.74555969 C-162.66121416 477.75652894 -163.86802159 477.76749818 -165.11139894 477.77879983 C-171.21867737 477.73150134 -175.47476622 477.68341186 -180.12109375 473.2578125 C-183.12259417 469.18962709 -183.49665432 466.25139537 -183.49861717 461.24059391 C-183.50297749 460.54270068 -183.50733782 459.84480746 -183.51183027 459.12576595 C-183.52279967 456.78156885 -183.51235698 454.43795831 -183.50204468 452.09376526 C-183.50550059 450.39843012 -183.5102647 448.70309723 -183.51622641 447.00776905 C-183.52877538 442.34454169 -183.52254832 437.681498 -183.51326776 433.0182699 C-183.50649349 427.99091672 -183.51695046 422.96359563 -183.52520752 417.93624878 C-183.53856469 408.08558765 -183.5356582 398.23499501 -183.5269696 388.38433117 C-183.52020088 380.37963259 -183.51927281 372.37495323 -183.52254105 364.37025261 C-183.52300075 363.23198893 -183.52346044 362.09372524 -183.52393407 360.92096872 C-183.52489323 358.60876377 -183.52586587 356.29655883 -183.52685185 353.98435389 C-183.53541165 332.28979561 -183.52556255 310.59527532 -183.50945075 288.90072327 C-183.49604884 270.27844166 -183.49837348 251.65621615 -183.51220703 233.03393555 C-183.52825552 211.41979309 -183.53458572 189.80568395 -183.52537024 168.19153637 C-183.52441457 165.8874203 -183.52347146 163.58330423 -183.52254105 161.27918816 C-183.52207822 160.14545805 -183.52161539 159.01172794 -183.52113854 157.84364237 C-183.51854633 149.84738373 -183.52292468 141.8511462 -183.52997971 133.85489082 C-183.53838686 124.11172379 -183.53613116 114.36862929 -183.52013747 104.62547059 C-183.51224393 99.65262258 -183.50918161 94.67989557 -183.51908493 89.70704842 C-183.52800998 85.15665916 -183.52313515 80.6065033 -183.50715227 76.05613529 C-183.50379515 74.40814279 -183.50551939 72.76013066 -183.51277964 71.11215074 C-183.521882 68.87477624 -183.51256661 66.63820462 -183.49861717 64.40087223 C-183.49813012 63.15734047 -183.49764306 61.91380871 -183.49714124 60.63259417 C-183.07652705 56.85785533 -182.11418852 54.47617973 -180.12109375 51.2578125 C-174.81970536 47.28700622 -170.74707683 46.68654917 -164.24829102 46.80371094 C-162.95928642 46.80283478 -162.95928642 46.80283478 -161.64424133 46.80194092 C-158.82490591 46.80471108 -156.00664901 46.83575192 -153.1875 46.8671875 C-151.22452878 46.8746537 -149.26155008 46.88034484 -147.29856873 46.88433838 C-142.14782912 46.89956483 -136.99754521 46.93882092 -131.84698486 46.9831543 C-126.58490156 47.02417152 -121.32274418 47.04236316 -116.06054688 47.0625 C-105.74719632 47.10531804 -95.43418302 47.17353314 -85.12109375 47.2578125 C-85.17330078 46.04544922 -85.17330078 46.04544922 -85.2265625 44.80859375 C-85.25363281 43.73996094 -85.28070313 42.67132813 -85.30859375 41.5703125 C-85.36080078 39.98669922 -85.36080078 39.98669922 -85.4140625 38.37109375 C-84.97395167 33.6941827 -83.09930507 31.18453902 -79.74609375 28.0078125 C-75.76117442 25.35119961 -71.96431126 25.12979174 -67.2578125 25.16015625 C-65.9284668 25.16499023 -65.9284668 25.16499023 -64.57226562 25.16992188 C-63.20424805 25.18249023 -63.20424805 25.18249023 -61.80859375 25.1953125 C-60.87724609 25.19982422 -59.94589844 25.20433594 -58.98632812 25.20898438 C-56.69785002 25.22072016 -54.40950567 25.23713887 -52.12109375 25.2578125 C-52.00894531 24.36964844 -51.89679688 23.48148438 -51.78125 22.56640625 C-50.08029141 14.04148363 -44.2263366 7.01880856 -37.12109375 2.2578125 C-26.76572544 -3.99987939 -10.99168953 -6.15190451 0 0 Z M-32.37109375 14.640625 C-38.23814179 20.062406 -39.85085748 23.78376367 -41.4453125 31.6484375 C-42.12109375 34.2578125 -42.12109375 34.2578125 -44.12109375 36.2578125 C-46.79492188 36.56079102 -46.79492188 36.56079102 -50.15234375 36.63671875 C-51.35503906 36.67087891 -52.55773437 36.70503906 -53.796875 36.74023438 C-55.05886719 36.76666016 -56.32085937 36.79308594 -57.62109375 36.8203125 C-60.11077733 36.88007508 -62.60037264 36.94367854 -65.08984375 37.01171875 C-66.75176758 37.04761108 -66.75176758 37.04761108 -68.44726562 37.08422852 C-71.09355906 37.08224089 -71.09355906 37.08224089 -73.12109375 38.2578125 C-73.12109375 51.1278125 -73.12109375 63.9978125 -73.12109375 77.2578125 C-70.76288799 78.43691538 -69.34790448 78.38855727 -66.71801758 78.39825439 C-65.79260162 78.40396454 -64.86718567 78.40967468 -63.91372681 78.41555786 C-62.89547821 78.41667572 -61.87722961 78.41779358 -60.828125 78.41894531 C-59.75815277 78.42391022 -58.68818054 78.42887512 -57.58578491 78.43399048 C-54.03504807 78.44863446 -50.48435587 78.45541692 -46.93359375 78.4609375 C-44.47501625 78.46668595 -42.01643878 78.47244372 -39.55786133 78.47821045 C-34.39957469 78.48872602 -29.24130367 78.49456543 -24.08300781 78.49804688 C-17.45804534 78.50354072 -10.83328745 78.52758554 -4.20838928 78.55601883 C0.87008274 78.57459541 5.94850492 78.57984809 11.02700806 78.58138275 C13.4703585 78.58441977 15.91370785 78.59248327 18.35702515 78.60556793 C21.76682356 78.62252859 25.17611461 78.62077289 28.5859375 78.61425781 C29.6041861 78.6234726 30.62243469 78.63268738 31.67153931 78.6421814 C32.59695526 78.63661224 33.52237122 78.63104309 34.47583008 78.62530518 C35.68593498 78.62750502 35.68593498 78.62750502 36.92048645 78.6297493 C37.56676498 78.50701015 38.21304352 78.38427101 38.87890625 78.2578125 C41.38712667 74.49548187 41.16756409 71.51642883 41.14453125 67.16015625 C41.1464447 66.37008682 41.14835815 65.5800174 41.15032959 64.76600647 C41.15168958 63.09750042 41.14800613 61.42898372 41.13964844 59.76049805 C41.12893183 57.2014197 41.13955707 54.64304108 41.15234375 52.08398438 C41.1510224 50.46354011 41.14846052 48.84309629 41.14453125 47.22265625 C41.14857971 46.45493393 41.15262817 45.68721161 41.15679932 44.89622498 C41.27291564 40.61441892 41.27291564 40.61441892 38.87890625 37.2578125 C35.99841427 36.93485044 35.99841427 36.93485044 32.62890625 36.94921875 C31.38109375 36.92408203 30.13328125 36.89894531 28.84765625 36.87304688 C26.20187193 36.83789128 23.55603283 36.80664107 20.91015625 36.77929688 C19.66234375 36.75287109 18.41453125 36.72644531 17.12890625 36.69921875 C15.40414062 36.67903687 15.40414062 36.67903687 13.64453125 36.65844727 C12.731875 36.52623779 11.81921875 36.39402832 10.87890625 36.2578125 C8.96447557 33.38616649 8.61512639 32.36270344 8.12890625 29.1328125 C6.64341199 22.11670882 3.03001746 16.37937722 -2.93359375 12.3203125 C-13.07151691 6.7800433 -23.38325972 7.06620036 -32.37109375 14.640625 Z M-171.12109375 60.2578125 C-171.22182516 62.39818434 -171.25034258 64.54195166 -171.25252151 66.68469143 C-171.25457415 67.36734905 -171.25662678 68.05000667 -171.25874162 68.75335088 C-171.26445249 71.06958857 -171.26294938 73.38576756 -171.26153564 75.70201111 C-171.26411694 77.36786883 -171.26712943 79.03372593 -171.27053905 80.69958216 C-171.27863991 85.29970049 -171.28040032 89.89980325 -171.28113651 94.49992788 C-171.28298171 99.45228267 -171.29052626 104.40462928 -171.29727173 109.35697937 C-171.310877 120.19555065 -171.31688305 131.03411824 -171.32128239 141.87269664 C-171.32404085 148.63391305 -171.32827744 155.39512802 -171.33278656 162.15634346 C-171.3449816 180.85806024 -171.35528077 199.55977587 -171.35866165 218.26149654 C-171.35888122 219.45937324 -171.35910078 220.65724995 -171.359327 221.89142594 C-171.35954528 223.09224591 -171.35976356 224.29306588 -171.35998845 225.53027433 C-171.36043192 227.9637864 -171.36087849 230.39729848 -171.36132812 232.83081055 C-171.36154955 234.03792879 -171.36177098 235.24504704 -171.36199912 236.48874462 C-171.36594966 256.06152268 -171.38341041 275.63426356 -171.40668765 295.20702725 C-171.43036614 315.27835031 -171.44286189 335.34965469 -171.44402957 355.42099196 C-171.44494826 366.69993682 -171.4507491 377.97883325 -171.46884918 389.25776482 C-171.48420294 398.85950057 -171.48939869 408.46117291 -171.48111108 418.0629186 C-171.47718785 422.9663913 -171.47821507 427.86973615 -171.49216843 432.77319336 C-171.50480781 437.25567449 -171.50379861 441.73793039 -171.49157771 446.22041077 C-171.48960328 447.84826784 -171.49277858 449.47614033 -171.50142208 451.10397565 C-171.51237398 453.30462769 -171.50512923 455.50446481 -171.49303055 457.70509243 C-171.49362764 458.93104702 -171.49422472 460.15700162 -171.49483991 461.42010635 C-171.37150367 462.35654938 -171.24816744 463.29299241 -171.12109375 464.2578125 C-167.82222626 466.45705749 -166.85802218 466.50760861 -163.02826691 466.50670147 C-161.968675 466.51130027 -160.90908309 466.51589906 -159.81738234 466.52063721 C-158.64920989 466.51549365 -157.48103744 466.51035009 -156.27746582 466.50505066 C-154.42082141 466.50867228 -154.42082141 466.50867228 -152.52666903 466.51236707 C-149.08448148 466.51703903 -145.64251552 466.51270119 -142.20034814 466.50460279 C-138.49069349 466.49803678 -134.78105218 466.50297187 -131.07139587 466.50648499 C-123.80161074 466.51153244 -116.53187101 466.5058785 -109.26209152 466.49663468 C-100.80170349 466.48626272 -92.34132534 466.48632056 -83.88093215 466.48680726 C-68.78861313 466.48730817 -53.69631528 466.4781386 -38.60400391 466.46362305 C-23.94872654 466.44953506 -9.29346782 466.44245225 5.36181641 466.44311523 C6.26439169 466.44315519 7.16696697 466.44319515 8.09689301 466.44323631 C8.99788533 466.44327667 9.89887764 466.44331702 10.82717276 466.4433586 C27.49609764 466.44404801 44.16501459 466.43816086 60.8339369 466.42920538 C66.7356406 466.42618565 72.63734285 466.42512542 78.53904724 466.42467308 C85.72816733 466.42399175 92.91727404 466.4195383 100.10638845 466.41034027 C103.77656856 466.40571536 107.44673153 466.40267933 111.11691475 466.40393448 C115.08971613 466.40522727 119.06248286 466.39879693 123.03527832 466.39152527 C124.20345077 466.39307387 125.37162322 466.39462247 126.57519484 466.396218 C127.63478674 466.39299356 128.69437865 466.38976911 129.78607941 466.38644695 C130.70375611 466.38574253 131.62143281 466.3850381 132.5669179 466.38431233 C135.03906115 466.35105311 135.03906115 466.35105311 137.87890625 465.2578125 C139.60329702 461.80903097 139.00743875 457.82970182 138.99243164 454.03466797 C138.99265068 452.60045502 138.99265068 452.60045502 138.99287415 451.13726807 C138.99217565 447.96648923 138.98438615 444.79576862 138.9765625 441.625 C138.9746981 439.43067456 138.9732743 437.23634871 138.97227478 435.04202271 C138.96845135 429.25847226 138.95862253 423.4749468 138.9475708 417.69140625 C138.93735295 411.79297219 138.93277636 405.8945341 138.92773438 399.99609375 C138.91700013 388.41665567 138.89992578 376.83723616 138.87890625 365.2578125 C138.42437608 365.65179922 137.96984591 366.04578594 137.50154209 366.45171165 C132.23973195 370.99127435 132.23973195 370.99127435 129.47923279 373.03042603 C125.91628489 375.91484155 124.12333608 378.10470235 123.15921021 382.65301514 C122.87283304 386.88425843 122.84771121 391.04433673 122.9140625 395.28125 C122.90907593 396.83445789 122.90042574 398.38765793 122.88829041 399.94082642 C122.86561703 404.00777069 122.88950265 408.07308577 122.92431641 412.13989258 C122.95829328 417.09614787 122.93831632 422.05242453 122.92527676 427.00873756 C122.91599405 430.86064924 122.9150857 434.71195265 122.93946838 438.56381226 C122.94239395 439.26910065 122.94531952 439.97438904 122.94833374 440.7010498 C122.95671772 442.60527232 122.96983602 444.50947234 122.98329163 446.41366577 C122.87890625 449.2578125 122.87890625 449.2578125 121.87890625 451.2578125 C118.0545215 452.53260742 114.4574011 452.40588398 110.47221375 452.40498352 C109.17002395 452.41049855 109.17002395 452.41049855 107.84152728 452.416125 C104.92128244 452.42717226 102.00107317 452.43100743 99.08081055 452.43481445 C96.99160651 452.44107824 94.90240359 452.44772496 92.8132019 452.45472717 C87.12927754 452.47214288 81.44536159 452.48269017 75.76141715 452.4909327 C72.21198934 452.49608089 68.66256416 452.50215666 65.1131382 452.50844383 C54.01260934 452.52749618 42.91208714 452.5417281 31.81154507 452.5500558 C18.98857232 452.55983404 6.16577192 452.58616879 -6.65714008 452.62655669 C-16.56294634 452.6566886 -26.46870312 452.67152184 -36.37455434 452.67483681 C-42.29367316 452.67719032 -48.21260787 452.6861902 -54.13167763 452.71129799 C-59.69914856 452.73453292 -65.26631354 452.73883031 -70.83382034 452.72853661 C-72.8776482 452.72804005 -74.92149088 452.73439569 -76.9652729 452.74809265 C-79.75503405 452.76574358 -82.54368903 452.75873893 -85.33345032 452.74555969 C-86.54732319 452.76201356 -86.54732319 452.76201356 -87.78571874 452.77879983 C-95.75316973 452.68789234 -100.02567598 448.60485292 -105.51220703 443.10961914 C-106.01384369 442.60988083 -106.51548035 442.11014252 -107.03231812 441.59526062 C-108.67359385 439.95766093 -110.30760463 438.31302256 -111.94140625 436.66796875 C-113.08873556 435.51944567 -114.23643662 434.37129383 -115.38449097 433.22349548 C-117.78304181 430.82338521 -120.17821064 428.41996808 -122.57080078 426.01391602 C-125.62990969 422.93780867 -128.69556902 419.86833411 -131.76356697 416.80109501 C-134.13166308 414.43272633 -136.49713908 412.06175535 -138.86175156 409.68990898 C-139.99102322 408.55746708 -141.12089102 407.42561931 -142.25137711 406.29438972 C-143.83303443 404.71055185 -145.411349 403.12345655 -146.98876953 401.53540039 C-147.88556427 400.63479385 -148.78235901 399.73418732 -149.70632935 398.80628967 C-150.5032016 397.96529221 -151.30007385 397.12429474 -152.12109375 396.2578125 C-153.17091903 395.33356413 -153.17091903 395.33356413 -154.2419529 394.39064407 C-157.24988942 389.37592764 -156.65678095 384.32130496 -156.60211182 378.58403015 C-156.60723837 376.62976749 -156.60723837 376.62976749 -156.61246848 374.63602477 C-156.62141394 371.02144295 -156.60541122 367.40733509 -156.58535624 363.79281366 C-156.56808921 359.89443313 -156.5739274 355.99607952 -156.57696533 352.09767151 C-156.57906317 345.34400279 -156.56650868 338.5904886 -156.54401398 331.83685875 C-156.51151163 322.07225932 -156.50108877 312.30773464 -156.49606201 302.54308698 C-156.48730658 286.70080143 -156.46068429 270.85859825 -156.42285156 255.01635742 C-156.38613788 239.62671318 -156.35782297 224.2370913 -156.34082031 208.84741211 C-156.33976942 207.89886113 -156.33871852 206.95031016 -156.33763579 205.97301521 C-156.33241565 201.21443387 -156.32736082 196.45585236 -156.32238817 191.69727075 C-156.28091841 152.21737818 -156.20717641 112.73763795 -156.12109375 73.2578125 C-120.97609375 72.7628125 -120.97609375 72.7628125 -85.12109375 72.2578125 C-85.12109375 67.9678125 -85.12109375 63.6778125 -85.12109375 59.2578125 C-96.18644233 59.23468967 -107.2517852 59.21689772 -118.31715298 59.20600033 C-123.45468941 59.20077137 -128.59220938 59.19367349 -133.72973633 59.18237305 C-138.68340785 59.17154463 -143.63706349 59.16553576 -148.59074593 59.16293526 C-150.48506991 59.16108093 -152.37939299 59.15746016 -154.27371025 59.15208244 C-156.91743761 59.14487261 -159.56109846 59.14382153 -162.20483398 59.14428711 C-163.39166023 59.1388942 -163.39166023 59.1388942 -164.60246277 59.13339233 C-168.1562493 58.80926355 -168.1562493 58.80926355 -171.12109375 60.2578125 Z M52.87890625 59.2578125 C52.87890625 63.5478125 52.87890625 67.8378125 52.87890625 72.2578125 C75.64890625 72.5878125 98.41890625 72.9178125 121.87890625 73.2578125 C123.46477525 76.4295505 123.2575707 79.89295072 123.44140625 83.3828125 C123.48458984 84.13691406 123.52777344 84.89101562 123.57226562 85.66796875 C123.67838945 87.53103138 123.77915626 89.39439774 123.87890625 91.2578125 C124.20890625 91.2578125 124.53890625 91.2578125 124.87890625 91.2578125 C125.53890625 87.9578125 126.19890625 84.6578125 126.87890625 81.2578125 C130.83890625 80.5978125 134.79890625 79.9378125 138.87890625 79.2578125 C138.93269851 76.29923841 138.97247718 73.34163529 139.00390625 70.3828125 C139.02904297 69.12017578 139.02904297 69.12017578 139.0546875 67.83203125 C139.06113281 67.02636719 139.06757813 66.22070312 139.07421875 65.390625 C139.08469238 64.64699707 139.09516602 63.90336914 139.10595703 63.13720703 C139.04546595 61.01291015 139.04546595 61.01291015 136.87890625 59.2578125 C134.19827198 59.06981959 131.62181167 59.00599259 128.94091797 59.03076172 C128.12132599 59.03046967 127.30173401 59.03017761 126.45730591 59.02987671 C123.74096182 59.03127306 121.02489007 59.04684849 118.30859375 59.0625 C116.42815297 59.06622905 114.54771026 59.06907653 112.66726685 59.07107544 C107.71224627 59.07872043 102.75734251 59.09837631 97.80236816 59.1204834 C92.74846985 59.14092322 87.69455271 59.15007316 82.640625 59.16015625 C72.7200007 59.18162141 62.79946318 59.21576776 52.87890625 59.2578125 Z M-145.12109375 84.2578125 C-145.12109375 182.9278125 -145.12109375 281.5978125 -145.12109375 383.2578125 C-126.64109375 383.5878125 -108.16109375 383.9178125 -89.12109375 384.2578125 C-75.6777972 397.70110905 -87.46053414 422.24915067 -87.12109375 441.2578125 C-21.45109375 441.2578125 44.21890625 441.2578125 111.87890625 441.2578125 C111.87890625 425.0878125 111.87890625 408.9178125 111.87890625 392.2578125 C107.24665814 396.22831088 104.4831884 398.71463845 100.94140625 403.1328125 C93.64619068 410.50540157 83.73020471 412.49698688 74.01318359 415.30224609 C71.08548205 416.19483247 68.25464395 417.21141472 65.3984375 418.30859375 C48.73394625 424.47441014 31.46295869 424.63413786 13.87890625 423.2578125 C12.87890625 422.2578125 12.87890625 422.2578125 12.62890625 418.8203125 C12.71140625 417.6446875 12.79390625 416.4690625 12.87890625 415.2578125 C16.21694316 413.03245456 17.50710336 412.96802846 21.421875 412.84375 C22.49501953 412.80507813 23.56816406 412.76640625 24.67382812 412.7265625 C26.3531543 412.68015625 26.3531543 412.68015625 28.06640625 412.6328125 C29.19755859 412.59414063 30.32871094 412.55546875 31.49414062 412.515625 C34.28889875 412.42128717 37.08364903 412.33569598 39.87890625 412.2578125 C40.23605713 410.99710937 40.59320801 409.73640625 40.96118164 408.4375 C42.30184204 403.72710997 43.67100396 399.02539586 45.04858398 394.32568359 C45.6389817 392.29698859 46.22179944 390.26607068 46.79663086 388.23291016 C47.62804101 385.29742048 48.48709836 382.37121517 49.3515625 379.4453125 C49.59979263 378.54603027 49.84802277 377.64674805 50.10377502 376.72021484 C53.27353736 366.22164835 59.92944425 361.00006107 68.59941101 354.7215271 C86.8173031 341.45960281 109.53020682 324.2830907 113.87981701 300.94145393 C117.80296076 274.15399083 114.9321332 246.01788481 111.87890625 219.2578125 C110.16788737 220.29337565 108.45686849 221.3289388 106.74584961 222.36450195 C103.38829698 223.97105159 101.34094582 223.41182569 97.87890625 222.2578125 C94.92601662 220.20231028 92.42817894 217.78837493 89.87890625 215.2578125 C88.65494141 214.07251953 88.65494141 214.07251953 87.40625 212.86328125 C79.96302184 205.56160418 79.96302184 205.56160418 79.62890625 200.3828125 C79.63578615 196.5369504 79.63578615 196.5369504 81.56640625 194.3203125 C83.14235546 192.36709624 83.14235546 192.36709624 82.48046875 190.23046875 C81.68741483 187.87093704 80.80466036 185.56820747 79.87890625 183.2578125 C79.21223958 181.2578125 78.54557292 179.2578125 77.87890625 177.2578125 C76.62078125 177.1546875 75.36265625 177.0515625 74.06640625 176.9453125 C71.67695489 176.74945583 70.25794074 176.52157929 68.28051758 175.14550781 C65.32927012 171.17075683 66.36220836 165.2440024 66.37792969 160.43383789 C66.37890171 158.33014901 66.33729249 156.23011474 66.29296875 154.12695312 C66.28776099 152.78646592 66.28507357 151.44596607 66.28515625 150.10546875 C66.27806641 148.88867432 66.27097656 147.67187988 66.26367188 146.41821289 C66.87890625 143.2578125 66.87890625 143.2578125 69.22070312 140.85424805 C71.87890625 139.2578125 71.87890625 139.2578125 75.00390625 138.8671875 C78.10535191 138.55471954 78.10535191 138.55471954 79.62890625 135.7109375 C80.04140625 134.65390625 80.45390625 133.596875 80.87890625 132.5078125 C81.31203125 131.46109375 81.74515625 130.414375 82.19140625 129.3359375 C82.98065209 125.80226863 82.59096873 124.38908467 80.87890625 121.2578125 C80.54890625 120.9278125 80.21890625 120.5978125 79.87890625 120.2578125 C79.33063544 116.35138297 78.97672559 113.71585286 81.08984375 110.30078125 C82.9310606 108.17862755 84.86734255 106.21970796 86.87890625 104.2578125 C88.17634766 102.92556641 88.17634766 102.92556641 89.5 101.56640625 C97.54639191 93.35651727 97.54639191 93.35651727 102.25390625 93.0078125 C106.06865497 93.27089862 107.11686572 93.80266536 109.87890625 96.2578125 C110.53890625 96.2578125 111.19890625 96.2578125 111.87890625 96.2578125 C111.87890625 92.2978125 111.87890625 88.3378125 111.87890625 84.2578125 C103.75107179 84.16736021 95.62363011 84.09401026 87.49542713 84.05056381 C83.72096332 84.02970923 79.9468624 84.0014316 76.17260742 83.95605469 C72.52862175 83.9125193 68.88498461 83.88865937 65.2407589 83.87830353 C63.85208336 83.87092581 62.4634264 83.85651849 61.07489967 83.83489227 C59.12670194 83.80576233 57.17815178 83.80417779 55.22973633 83.80371094 C54.12165115 83.79482849 53.01356598 83.78594604 51.87190247 83.77679443 C48.19734484 84.36734934 46.62555667 85.81867934 43.87890625 88.2578125 C41.01206041 89.21342778 39.21361419 89.38757251 36.23736572 89.39825439 C35.28414429 89.40396454 34.33092285 89.40967468 33.34881592 89.41555786 C32.30461487 89.41667572 31.26041382 89.41779358 30.18457031 89.41894531 C28.5329187 89.42639267 28.5329187 89.42639267 26.84790039 89.43399048 C23.19677103 89.44862293 19.54568514 89.45541626 15.89453125 89.4609375 C13.35968016 89.46668846 10.82482909 89.4724462 8.28997803 89.47821045 C3.6505342 89.4873795 -0.98889656 89.49367828 -5.62834716 89.4967072 C-12.44733552 89.50118394 -19.26612303 89.5187146 -26.08505034 89.5477078 C-31.99837279 89.57197377 -37.9116455 89.57965374 -43.82501984 89.58138275 C-46.33680565 89.58440899 -48.84859062 89.59243652 -51.36034393 89.60556793 C-54.87677682 89.62263803 -58.39272208 89.62074539 -61.90917969 89.61425781 C-62.94528381 89.6234726 -63.98138794 89.63268738 -65.04888916 89.6421814 C-71.67335037 89.60393089 -77.20572827 89.17317798 -82.12109375 84.2578125 C-102.91109375 84.2578125 -123.70109375 84.2578125 -145.12109375 84.2578125 Z M136.87890625 91.2578125 C136.79640625 92.6603125 136.71390625 94.0628125 136.62890625 95.5078125 C136.08203125 98.0078125 136.08203125 98.0078125 134.87890625 100.2578125 C132.01608444 101.78951334 129.2614533 102.53823197 126.12109375 103.3515625 C122.93808771 104.24127021 120.39408023 105.4265623 117.50390625 107.0078125 C113.77695858 108.93389906 111.14139012 110.14996029 106.87890625 109.2578125 C105.22890625 107.9378125 103.57890625 106.6178125 101.87890625 105.2578125 C98.57890625 108.5578125 95.27890625 111.8578125 91.87890625 115.2578125 C92.55953125 116.1034375 93.24015625 116.9490625 93.94140625 117.8203125 C95.87890625 121.2578125 95.87890625 121.2578125 95.94140625 124.5078125 C94.79360664 128.55886995 93.12024153 131.90731463 91.15625 135.61328125 C89.18304815 139.69847285 88.06566443 143.88554551 86.87890625 148.2578125 C83.90890625 148.9178125 80.93890625 149.5778125 77.87890625 150.2578125 C77.87890625 155.2078125 77.87890625 160.1578125 77.87890625 165.2578125 C79.98265625 165.6290625 79.98265625 165.6290625 82.12890625 166.0078125 C85.4111581 167.08992991 86.57337701 167.67130547 88.19140625 170.77734375 C88.83107242 172.85359353 89.42301338 174.94499996 89.97265625 177.046875 C91.10049088 181.04290975 92.90073535 184.39908057 94.92578125 188.00390625 C96.03453141 190.62582773 96.15914406 192.43675188 95.87890625 195.2578125 C94.37890625 197.5703125 94.37890625 197.5703125 92.87890625 199.2578125 C94.28735343 202.47305555 95.98235411 204.57965118 98.50390625 207.0078125 C99.13554687 207.62140625 99.7671875 208.235 100.41796875 208.8671875 C100.90007812 209.32609375 101.3821875 209.785 101.87890625 210.2578125 C104.56945905 209.03773306 104.56945905 209.03773306 106.87890625 207.2578125 C113.23392922 206.26925337 117.31558329 208.76987359 122.859375 211.7265625 C126.76994681 213.70967265 130.69956031 214.95604901 134.87890625 216.2578125 C136.92589039 218.30479664 136.57936318 222.56192491 136.87890625 225.2578125 C141.82890625 225.2578125 146.77890625 225.2578125 151.87890625 225.2578125 C151.87890625 223.8965625 151.87890625 222.5353125 151.87890625 221.1328125 C152.39453125 218.6484375 152.39453125 218.6484375 153.87890625 216.2578125 C158.41191091 213.87950961 163.04556817 212.39947697 167.93041992 210.92138672 C170.71372527 209.97350751 173.25343886 208.57243502 175.87890625 207.2578125 C182.06617217 206.62859902 182.06617217 206.62859902 184.81640625 208.7578125 C185.16703125 209.2528125 185.51765625 209.7478125 185.87890625 210.2578125 C189.0941493 208.84936532 191.20074493 207.15436464 193.62890625 204.6328125 C194.2425 204.00117188 194.85609375 203.36953125 195.48828125 202.71875 C195.9471875 202.23664063 196.40609375 201.75453125 196.87890625 201.2578125 C195.67509177 198.76419679 194.42461903 196.57638167 192.87890625 194.2578125 C193.23226839 190.10227373 194.9488756 186.72563682 196.75390625 183.0078125 C198.67433025 179.02688652 200.18184982 175.36614917 201.19140625 171.0703125 C201.82421875 168.9375 201.82421875 168.9375 202.87890625 167.2578125 C205.98085183 165.84581577 208.42558355 165.60814959 211.87890625 165.2578125 C211.87890625 160.3078125 211.87890625 155.3578125 211.87890625 150.2578125 C209.96078125 150.0721875 209.96078125 150.0721875 208.00390625 149.8828125 C204.12890625 149.5078125 204.12890625 149.5078125 201.87890625 147.2578125 C201.22130892 145.44295873 200.62588242 143.60527424 200.06640625 141.7578125 C198.4469099 136.64781077 196.41001561 132.14897271 193.734375 127.51171875 C192.65744617 124.67433091 192.9758266 123.12076713 193.87890625 120.2578125 C195.44140625 118.4453125 195.44140625 118.4453125 196.87890625 117.2578125 C195.47045907 114.04256945 193.77545839 111.93597382 191.25390625 109.5078125 C190.62226563 108.89421875 189.990625 108.280625 189.33984375 107.6484375 C188.85773438 107.18953125 188.375625 106.730625 187.87890625 106.2578125 C187.26015625 106.5671875 186.64140625 106.8765625 186.00390625 107.1953125 C182.26525093 109.06464016 180.1460527 109.57180036 175.87890625 109.2578125 C172.984375 108.05078125 172.984375 108.05078125 170.06640625 106.4453125 C165.64252167 104.0983949 161.45239252 102.29682803 156.62109375 100.99609375 C154.87890625 100.2578125 154.87890625 100.2578125 152.87890625 97.2578125 C152.38390625 94.2878125 152.38390625 94.2878125 151.87890625 91.2578125 C146.92890625 91.2578125 141.97890625 91.2578125 136.87890625 91.2578125 Z M123.87890625 225.2578125 C123.87890625 248.6878125 123.87890625 272.1178125 123.87890625 296.2578125 C126.18890625 294.2778125 128.49890625 292.2978125 130.87890625 290.2578125 C131.67292847 289.61021973 132.46695068 288.96262695 133.28503418 288.29541016 C137.1384133 284.89686311 139.34370102 282.44929906 139.78710938 277.21875 C139.7858594 275.35629043 139.74162546 273.49348979 139.66015625 271.6328125 C139.64317688 270.15155884 139.64317688 270.15155884 139.62585449 268.64038086 C139.58135187 265.51081736 139.48104236 262.38597173 139.37890625 259.2578125 C139.33874533 257.12636863 139.30224915 254.99485236 139.26953125 252.86328125 C139.18170561 247.6598703 139.0481406 242.45917842 138.87890625 237.2578125 C137.84830078 237.11085937 137.84830078 237.11085937 136.796875 236.9609375 C135.89582031 236.81140625 134.99476563 236.661875 134.06640625 236.5078125 C133.17308594 236.36859375 132.27976562 236.229375 131.359375 236.0859375 C128.31627231 235.06997251 127.45718248 234.00967874 125.87890625 231.2578125 C125.19140625 228.0078125 125.19140625 228.0078125 124.87890625 225.2578125 C124.54890625 225.2578125 124.21890625 225.2578125 123.87890625 225.2578125 Z M185.87890625 252.2578125 C185.45729196 256.27361807 185.45729196 256.27361807 187.8984375 258.73144531 C189.28095703 260.08254395 189.28095703 260.08254395 190.69140625 261.4609375 C191.17971924 261.9435907 191.66803223 262.4262439 192.17114258 262.92352295 C193.73125554 264.4612649 195.30470155 265.98451253 196.87890625 267.5078125 C197.93971116 268.54855337 198.99961859 269.59020987 200.05859375 270.6328125 C202.6550389 273.18518155 205.26362409 275.72473215 207.87890625 278.2578125 C212.89901053 273.35124854 214.92372102 270.42321377 215.25390625 263.3828125 C215.12158944 258.15240669 214.10555137 255.39453701 210.87890625 251.2578125 C206.16415907 247.5803097 202.36314324 246.5538318 196.390625 246.80078125 C192.33583057 247.53858988 188.72690072 249.23480161 185.87890625 252.2578125 Z M174.87890625 263.2578125 C139.23890625 298.8978125 103.59890625 334.5378125 66.87890625 371.2578125 C69.84890625 374.7228125 69.84890625 374.7228125 72.87890625 378.2578125 C75.93162966 378.57463604 75.93162966 378.57463604 77.91910839 376.58675385 C79.09854251 375.40317165 79.09854251 375.40317165 80.30180359 374.19567871 C81.6584613 372.84520699 81.6584613 372.84520699 83.04252625 371.467453 C84.04240593 370.45695523 85.04214169 369.44631503 86.04174805 368.43554688 C87.09572009 367.38072896 88.15035248 366.32657051 89.20559692 365.27302551 C92.07365518 362.40583022 94.93235113 359.52945974 97.78950095 356.65139961 C100.77503732 353.64714661 103.76903568 350.65135161 106.76216125 347.65466309 C112.4311024 341.97638671 118.09235107 336.29050427 123.75090104 330.60187483 C130.19234081 324.12693701 136.64227143 317.66048599 143.0929426 311.19474697 C156.36442556 297.89188152 169.62516492 284.57835297 182.87890625 271.2578125 C181.92468817 270.10854984 180.9653858 268.96350709 180.00390625 267.8203125 C179.47023438 267.18222656 178.9365625 266.54414063 178.38671875 265.88671875 C176.95663055 264.14976246 176.95663055 264.14976246 174.87890625 263.2578125 Z M190.87890625 279.2578125 C155.23890625 314.8978125 119.59890625 350.5378125 82.87890625 387.2578125 C85.84890625 390.7228125 85.84890625 390.7228125 88.87890625 394.2578125 C92.80283089 394.66481381 92.80283089 394.66481381 95.02653885 392.60237122 C96.19352877 391.42985054 96.19352877 391.42985054 97.38409424 390.23364258 C98.28149323 389.34174225 99.17889221 388.44984192 100.10348511 387.53091431 C101.09033506 386.52990758 102.07699242 385.52871097 103.06347656 384.52734375 C104.10752912 383.48216313 105.15246282 382.43786206 106.19821167 381.39437866 C109.03748971 378.55625033 111.86424909 375.70593999 114.6889658 372.8533287 C117.6420064 369.8753172 120.60634545 366.9085968 123.56951904 363.94067383 C129.18024093 358.3175095 134.78068694 352.68422462 140.37753749 347.04725742 C146.74930807 340.63080867 153.13241308 334.22568702 159.51650858 327.82150459 C172.64998441 314.6461957 185.76911604 301.4566873 198.87890625 288.2578125 C197.16309541 283.62512324 195.22740377 282.88156043 190.87890625 279.2578125 Z M60.87890625 383.2578125 C58.74605281 388.64607381 56.92984549 394.10730147 55.19140625 399.6328125 C54.96493408 400.34695313 54.73846191 401.06109375 54.50512695 401.796875 C53.30001224 405.45744705 53.30001224 405.45744705 52.87890625 409.2578125 C61.32310166 407.24946332 69.60721964 404.88607421 77.87890625 402.2578125 C78.19196536 399.26093362 78.19196536 399.26093362 76.42602539 397.44848633 C75.76207764 396.79388428 75.09812988 396.13928223 74.4140625 395.46484375 C73.69669922 394.75263672 72.97933594 394.04042969 72.24023438 393.30664062 C71.48162109 392.56865234 70.72300781 391.83066406 69.94140625 391.0703125 C69.18666016 390.32072266 68.43191406 389.57113281 67.65429688 388.79882812 C64.67280151 385.21766803 64.67280151 385.21766803 60.87890625 383.2578125 Z M-136.12109375 394.2578125 C-131.52695457 399.67521203 -131.52695457 399.67521203 -126.7019043 404.80639648 C-126.10496262 405.40649033 -125.50802094 406.00658417 -124.89299011 406.62486267 C-124.2708815 407.24494705 -123.64877289 407.86503143 -123.0078125 408.50390625 C-122.35279251 409.15988297 -121.69777252 409.81585968 -121.02290344 410.49171448 C-119.6518318 411.86346152 -118.27951702 413.2339671 -116.90600586 414.60327148 C-114.79358274 416.71028507 -112.68661767 418.82265276 -110.58007812 420.93554688 C-109.24381057 422.27115455 -107.90723334 423.60645249 -106.5703125 424.94140625 C-105.93808273 425.57566025 -105.30585297 426.20991425 -104.65446472 426.86338806 C-102.26317169 429.84277569 -102.26317169 429.84277569 -99.12109375 431.2578125 C-99.12109375 419.0478125 -99.12109375 406.8378125 -99.12109375 394.2578125 C-111.33109375 394.2578125 -123.54109375 394.2578125 -136.12109375 394.2578125 Z " fill="#FFDA69" transform="translate(234.12109375,18.7421875)"/>
<path d="M0 0 C9.49033858 9.28365244 14.12060976 20.08767178 14.52734375 33.29296875 C14.30992797 46.94939714 9.61411232 57.37658359 0.46484375 67.29296875 C-9.1592908 76.51226399 -20.39220271 79.53534456 -33.33618164 79.46899414 C-46.64619349 79.14400742 -57.05256007 73.37163 -66.16015625 63.85546875 C-73.7675958 54.80338411 -77.41442939 43.30809047 -77.1015625 31.5234375 C-75.59877038 17.21223259 -69.70562043 6.46874981 -58.6484375 -2.72265625 C-40.44221238 -15.66639978 -16.94243358 -14.63584619 0 0 Z M-24.84765625 1.10546875 C-24.84765625 22.55546875 -24.84765625 44.00546875 -24.84765625 66.10546875 C-15.71111635 64.80024876 -9.87829152 61.1714521 -4.12890625 53.96875 C1.55853577 45.6976834 2.97375238 38.0710881 2.15234375 28.10546875 C0.39692633 19.36396443 -4.07169952 12.8236178 -10.84765625 7.10546875 C-17.41851101 2.84331321 -17.41851101 2.84331321 -24.84765625 1.10546875 Z M-55.87109375 10.90234375 C-62.07939347 17.82226676 -64.33358305 25.45066352 -65.16015625 34.54296875 C-64.33509739 43.94863973 -60.88421143 52.24221439 -54.03125 58.859375 C-49.65760666 62.3847966 -42.67833973 67.10546875 -36.84765625 67.10546875 C-36.84765625 45.32546875 -36.84765625 23.54546875 -36.84765625 1.10546875 C-44.16824981 1.10546875 -50.81952727 6.08282803 -55.87109375 10.90234375 Z " fill="#FFDA69" transform="translate(409.84765625,142.89453125)"/>
<path d="M0 0 C1.29300522 0.00233139 2.58601044 0.00466278 3.91819763 0.00706482 C6.64951073 0.01321754 9.3799996 0.03585438 12.11108398 0.0715332 C15.60711349 0.11685022 19.10239868 0.13156233 22.5986948 0.13527012 C25.94090485 0.14076969 29.28286445 0.16414609 32.625 0.1875 C33.87922256 0.1928627 35.13344513 0.1982254 36.42567444 0.20375061 C38.17285011 0.2277317 38.17285011 0.2277317 39.95532227 0.25219727 C40.97948746 0.26283707 42.00365265 0.27347687 43.05885315 0.28443909 C45.7988415 0.56397512 47.44849397 1.06451172 49.74609375 2.55859375 C51.0840382 5.23448264 50.90285493 7.32538974 50.93896484 10.32177734 C50.95502777 11.52998138 50.9710907 12.73818542 50.98764038 13.98300171 C51.03196079 19.50591899 51.07358708 25.02870509 51.09619141 30.55175781 C51.11284611 34.19273903 51.15763177 37.83281622 51.20856285 41.47345543 C51.24221738 44.27360066 51.25376658 47.07353067 51.25941849 49.87385941 C51.26939923 51.86815189 51.303651 53.862275 51.33822632 55.85629272 C51.33537628 57.07080109 51.33252625 58.28530945 51.32958984 59.53662109 C51.3376767 60.60536469 51.34576355 61.67410828 51.35409546 62.77523804 C50.74609375 65.55859375 50.74609375 65.55859375 48.57963562 67.90361023 C45.34797788 69.79112082 43.5428775 70.05970014 39.82592773 70.06030273 C38.07402382 70.07437416 38.07402382 70.07437416 36.28672791 70.08872986 C35.03452957 70.07749588 33.78233124 70.0662619 32.4921875 70.0546875 C31.19918228 70.05614273 29.90617706 70.05759796 28.57398987 70.05909729 C25.84281963 70.06047876 23.11217617 70.04796518 20.38110352 70.02514648 C16.88496394 69.99673335 13.38969716 69.99950967 9.8934927 70.0122366 C6.55129981 70.02087213 3.20936566 70.00574675 -0.1328125 69.9921875 C-1.38703506 69.99512314 -2.64125763 69.99805878 -3.93348694 70.00108337 C-5.09827072 69.9883992 -6.2630545 69.97571503 -7.46313477 69.96264648 C-8.48729996 69.9572435 -9.51146515 69.95184052 -10.56666565 69.9462738 C-13.66680985 69.4990254 -15.02786607 68.7344602 -17.25390625 66.55859375 C-18.28923351 63.45261197 -18.40522248 61.23222385 -18.44677734 57.97314453 C-18.46284027 56.82830597 -18.4789032 55.68346741 -18.49545288 54.50393677 C-18.53989343 49.27819649 -18.58138838 44.05254247 -18.60400391 38.82666016 C-18.61734953 36.06785979 -18.64521645 33.30979801 -18.68603516 30.55126953 C-18.74483294 26.57716863 -18.76266208 22.60342725 -18.77734375 18.62890625 C-18.80001312 17.39544464 -18.8226825 16.16198303 -18.84603882 14.8911438 C-18.83411633 10.07559462 -18.78778411 6.5866585 -16.54956055 2.27661133 C-11.2039305 -0.51005425 -5.93454031 -0.09256946 0 0 Z M-6.25390625 12.55859375 C-6.25390625 27.40859375 -6.25390625 42.25859375 -6.25390625 57.55859375 C8.59609375 57.55859375 23.44609375 57.55859375 38.74609375 57.55859375 C38.74609375 42.70859375 38.74609375 27.85859375 38.74609375 12.55859375 C23.89609375 12.55859375 9.04609375 12.55859375 -6.25390625 12.55859375 Z " fill="#FFDA69" transform="translate(126.25390625,132.44140625)"/>
<path d="M0 0 C1.10347778 -0.00096176 2.20695557 -0.00192352 3.34387207 -0.00291443 C5.22096863 -0.0217141 5.22096863 -0.0217141 7.13598633 -0.04089355 C8.50281817 -0.02862559 9.86964009 -0.01520562 11.2364502 -0.00071716 C12.63745305 -0.00154577 14.0384558 -0.00400484 15.43945312 -0.00802612 C18.37517574 -0.01088497 21.31013575 0.00382345 24.24572754 0.03126526 C28.00898534 0.06534997 31.77087949 0.05933167 35.53420258 0.04060268 C38.42705655 0.03003435 41.31959314 0.03896861 44.2124176 0.0539875 C45.5998897 0.05917113 46.98739493 0.05868527 48.37486267 0.05244255 C50.31379483 0.04699355 52.25274374 0.07020666 54.19152832 0.09474182 C55.2950061 0.1009404 56.39848389 0.10713898 57.53540039 0.11352539 C60.2677002 0.62818909 60.2677002 0.62818909 62.12220764 2.2928772 C63.55022308 5.20416757 63.65499045 7.28473515 63.67175293 10.52662659 C63.6844371 11.71465881 63.69712128 12.90269104 63.71018982 14.12672424 C63.70725418 15.40595764 63.70431854 16.68519104 63.70129395 18.00318909 C63.7065358 19.3198053 63.71177765 20.63642151 63.71717834 21.99293518 C63.72610349 24.7770497 63.72369296 27.56087727 63.71374512 30.34498596 C63.7022482 33.90963934 63.72247915 37.47330315 63.75166225 41.03782654 C63.77443601 44.44299997 63.7675577 47.84794128 63.76379395 51.25318909 C63.77502792 52.53242249 63.7862619 53.81165588 63.7978363 55.12965393 C63.78376488 56.91170227 63.78376488 56.91170227 63.76940918 58.72975159 C63.76924301 59.77469788 63.76907684 60.81964417 63.76890564 61.89625549 C63.12379816 65.41255967 62.17158592 66.56958291 59.2677002 68.62818909 C56.49107361 69.12266541 56.49107361 69.12266541 53.26159668 69.11402893 C52.05031601 69.12018219 50.83903534 69.12633545 49.59104919 69.13267517 C48.28680496 69.11830414 46.98256073 69.10393311 45.63879395 69.08912659 C44.28406449 69.08674108 42.92933168 69.08583707 41.57460022 69.08634949 C38.73909719 69.08322513 35.90410111 69.06668751 33.06872559 69.03981018 C29.43470624 69.00579789 25.80124267 68.99818271 22.16708279 68.99970055 C19.371228 68.99915671 16.57549464 68.98818795 13.77968025 68.97369766 C11.78827007 68.9642428 9.79683439 68.96077524 7.80540466 68.9573822 C6.59727615 68.9446225 5.38914764 68.93186279 4.14440918 68.91871643 C3.07947739 68.91109283 2.01454559 68.90346924 0.91734314 68.89561462 C-1.7322998 68.62818909 -1.7322998 68.62818909 -4.7322998 66.62818909 C-5.77106187 63.5119029 -5.87129888 61.31229832 -5.89343262 58.04273987 C-5.90784393 56.32548203 -5.90784393 56.32548203 -5.92254639 54.5735321 C-5.92679626 53.33602203 -5.93104614 52.09851196 -5.9354248 50.82350159 C-5.94397491 48.91660049 -5.94397491 48.91660049 -5.95269775 46.97117615 C-5.96215114 44.27949951 -5.96904636 41.58793446 -5.97253418 38.89625549 C-5.978017 35.4540611 -6.0020448 32.01226264 -6.03050613 28.57019234 C-6.05365443 25.27965885 -6.0555835 21.9891051 -6.0604248 18.69850159 C-6.07894501 16.84830917 -6.07894501 16.84830917 -6.09783936 14.96073914 C-6.09483826 13.80959625 -6.09183716 12.65845337 -6.08874512 11.47242737 C-6.09239075 10.46221527 -6.09603638 9.45200317 -6.09979248 8.41117859 C-5.51521611 3.98423347 -4.59526689 1.05650797 0 0 Z M6.2677002 12.62818909 C6.2677002 27.14818909 6.2677002 41.66818909 6.2677002 56.62818909 C21.1177002 56.62818909 35.9677002 56.62818909 51.2677002 56.62818909 C51.2677002 42.10818909 51.2677002 27.58818909 51.2677002 12.62818909 C36.4177002 12.62818909 21.5677002 12.62818909 6.2677002 12.62818909 Z " fill="#FFDA6A" transform="translate(113.7322998046875,316.37181091308594)"/>
<path d="M0 0 C1.81230606 -0.01925285 1.81230606 -0.01925285 3.66122437 -0.03889465 C4.97265411 -0.04628159 6.28408386 -0.05366852 7.63525391 -0.0612793 C8.30141346 -0.06535482 8.96757301 -0.06943035 9.65391922 -0.07362938 C13.17926982 -0.09448569 16.70458153 -0.10878972 20.22998047 -0.11816406 C23.8708218 -0.12923292 27.51105267 -0.16363835 31.15167809 -0.20333576 C33.9518243 -0.22948126 36.75182452 -0.23785394 39.55208206 -0.24144554 C41.54631496 -0.24868334 43.54044815 -0.27513011 45.53451538 -0.30183411 C46.74902374 -0.29890854 47.9635321 -0.29598297 49.21484375 -0.29296875 C50.81795914 -0.30176811 50.81795914 -0.30176811 52.45346069 -0.31074524 C56.00928374 0.31236689 57.16160284 1.24373777 59.23681641 4.17700195 C59.73802185 6.90893555 59.73802185 6.90893555 59.73852539 10.07543945 C59.74790634 11.26347168 59.75728729 12.45150391 59.76695251 13.67553711 C59.75571854 14.95477051 59.74448456 16.23400391 59.73291016 17.55200195 C59.73436539 18.86861816 59.73582062 20.18523437 59.73731995 21.54174805 C59.73870299 24.32596872 59.72616304 27.10967366 59.70336914 29.89379883 C59.67498382 33.45834343 59.67772262 37.02203141 59.69045925 40.5866394 C59.69909607 43.99184968 59.68396728 47.39680613 59.67041016 50.80200195 C59.67334579 52.08123535 59.67628143 53.36046875 59.67930603 54.6784668 C59.66662186 55.86649902 59.65393768 57.05453125 59.64086914 58.27856445 C59.63546616 59.32351074 59.63006317 60.36845703 59.62449646 61.44506836 C59.16957172 64.65086699 58.65028608 66.01056456 56.23681641 68.17700195 C53.5045166 68.69166565 53.5045166 68.69166565 50.16064453 68.71044922 C48.90924683 68.72628555 47.65784912 68.74212189 46.36853027 68.75843811 C45.0017052 68.75459691 43.63488304 68.74955801 42.26806641 68.7434082 C40.86706122 68.74864239 39.46605956 68.75491812 38.06506348 68.76219177 C35.12946993 68.77260093 32.19436097 68.76802748 29.25878906 68.75341797 C25.49539874 68.73622239 21.73353407 68.75972912 17.97031403 68.79490757 C15.07747264 68.81685995 12.18499763 68.81544575 9.292099 68.80714226 C7.90460028 68.80632164 6.51707495 68.81320635 5.12965393 68.82791328 C3.19083223 68.84531513 1.25179084 68.82752314 -0.68701172 68.80810547 C-1.7904895 68.80714371 -2.89396729 68.80618195 -4.03088379 68.80519104 C-6.76318359 68.17700195 -6.76318359 68.17700195 -8.61967468 66.00183105 C-9.87882335 62.89133514 -10.1375901 60.69630955 -10.13549805 57.34863281 C-10.14172684 56.20071762 -10.14795563 55.05280243 -10.15437317 53.87010193 C-10.14516342 52.63977737 -10.13595367 51.40945282 -10.12646484 50.1418457 C-10.12696335 48.87103653 -10.12746185 47.60022736 -10.12797546 46.29090881 C-10.12563664 43.60671518 -10.11750342 40.92331362 -10.09936523 38.23925781 C-10.07665563 34.80379331 -10.07614047 31.36876842 -10.08288288 27.93324947 C-10.08703203 24.64858188 -10.07504891 21.363992 -10.06396484 18.0793457 C-10.06487625 16.84699692 -10.06578766 15.61464813 -10.06672668 14.34495544 C-10.05719467 13.20019241 -10.04766266 12.05542938 -10.0378418 10.87597656 C-10.03323441 9.86957626 -10.02862701 8.86317596 -10.02388 7.82627869 C-9.75555232 5.09945064 -9.24815503 3.46419299 -7.76318359 1.17700195 C-5.08491869 -0.1621305 -2.9990311 0.02766529 0 0 Z M2.23681641 12.17700195 C2.23681641 26.69700195 2.23681641 41.21700195 2.23681641 56.17700195 C17.08681641 56.17700195 31.93681641 56.17700195 47.23681641 56.17700195 C47.23681641 41.65700195 47.23681641 27.13700195 47.23681641 12.17700195 C32.38681641 12.17700195 17.53681641 12.17700195 2.23681641 12.17700195 Z " fill="#FFDA6A" transform="translate(117.76318359375,224.822998046875)"/>
<path d="M0 0 C0.92527496 -0.00701431 1.85054993 -0.01402863 2.80386353 -0.02125549 C4.31573746 -0.00978989 4.31573746 -0.00978989 5.8581543 0.00190735 C6.92520599 -0.00174332 7.99225769 -0.00539398 9.09164429 -0.00915527 C12.62204864 -0.01726728 16.15199496 -0.00364481 19.68237305 0.01094055 C22.13330078 0.01145908 24.58422893 0.01094167 27.03515625 0.00942993 C32.17315881 0.00951968 37.31100457 0.01995562 42.44897461 0.03804016 C49.04002974 0.06072724 55.63085566 0.06127169 62.22193909 0.05452251 C67.28334597 0.05118347 72.34470046 0.05781144 77.40609741 0.06765175 C79.83661627 0.07150514 82.26714096 0.07265139 84.69766235 0.0710659 C88.09241878 0.07069568 91.48687969 0.08330371 94.8815918 0.0995636 C95.88950775 0.09708618 96.89742371 0.09460876 97.93588257 0.09205627 C99.32379501 0.10268349 99.32379501 0.10268349 100.73974609 0.11352539 C101.94318916 0.1166047 101.94318916 0.1166047 103.17094421 0.11974621 C105.69168346 0.41146398 107.2679537 0.95027849 109.36987305 2.3742218 C110.30737305 5.8117218 110.30737305 5.8117218 110.36987305 9.3742218 C108.80995252 11.57415251 107.89905906 12.28022611 105.22872925 12.75453854 C104.39471588 12.75696843 103.56070251 12.75939833 102.70141602 12.76190186 C101.2629129 12.7767588 101.2629129 12.7767588 99.79534912 12.79191589 C98.74486389 12.78741425 97.69437866 12.7829126 96.61206055 12.77827454 C94.95077118 12.78856941 94.95077118 12.78856941 93.25592041 12.79907227 C89.58544185 12.81741292 85.91538771 12.81349259 82.24487305 12.80781555 C79.70043803 12.81237356 77.15600424 12.81767798 74.61157227 12.82369995 C69.27508977 12.83264516 63.93876283 12.83042429 58.60229492 12.82026672 C52.4315397 12.8087808 46.26121884 12.82286734 40.09052086 12.8496632 C34.15579947 12.87447044 28.22121341 12.87700213 22.28643799 12.87054634 C19.76018552 12.87039257 17.2339249 12.87648259 14.70770264 12.88883781 C11.18069806 12.90365715 7.65465917 12.89313687 4.12768555 12.87593079 C3.07720032 12.88559875 2.02671509 12.89526672 0.94439697 12.90522766 C-0.0146051 12.89539352 -0.97360718 12.88555939 -1.96166992 12.87542725 C-2.79568329 12.87521796 -3.62969666 12.87500868 -4.48898315 12.87479305 C-6.63012695 12.3742218 -6.63012695 12.3742218 -8.42581177 10.50305271 C-9.63012695 8.3742218 -9.63012695 8.3742218 -9.56762695 5.8117218 C-7.8105133 1.24322631 -4.68811688 -0.00098018 0 0 Z " fill="#FFDA69" transform="translate(198.630126953125,323.6257781982422)"/>
<path d="M0 0 C0.86222672 -0.00686325 1.72445343 -0.0137265 2.61280823 -0.02079773 C5.46144093 -0.03909157 8.30952432 -0.03522494 11.15820312 -0.02954102 C13.13830749 -0.03410123 15.11841027 -0.03940632 17.09851074 -0.04542542 C21.24786816 -0.05436134 25.39703315 -0.05192748 29.54638672 -0.04199219 C34.86640759 -0.03049571 40.1857654 -0.05072205 45.50569916 -0.07990932 C49.59434229 -0.0982448 53.68282571 -0.09798427 57.77149963 -0.0922718 C59.73312816 -0.0921183 61.69476732 -0.09818679 63.65635681 -0.11056328 C66.39763151 -0.12542324 69.13767052 -0.1148337 71.87890625 -0.09765625 C72.6904567 -0.10732422 73.50200714 -0.11699219 74.33815002 -0.12695312 C77.93692089 -0.07967573 80.0217585 0.09237534 82.94714355 2.2752533 C84.43945312 4.40405273 84.43945312 4.40405273 84.87695312 6.96655273 C84.35750916 9.86059766 83.69981858 10.59103268 81.43945312 12.40405273 C78.48730802 12.70037343 75.7461412 12.81370307 72.79296875 12.79223633 C71.90977463 12.79749329 71.02658051 12.80275024 70.11662292 12.8081665 C67.19280389 12.82138663 64.26952784 12.81262129 61.34570312 12.80249023 C59.31693416 12.80451039 57.28816589 12.80742134 55.25939941 12.81118774 C51.00570773 12.81561383 46.75220491 12.80917085 42.49853516 12.79516602 C37.04060075 12.77807404 31.58310889 12.7879137 26.12519073 12.80588341 C21.93537042 12.81671353 17.74565536 12.81327844 13.55583191 12.80550003 C11.54314624 12.80349589 9.53045107 12.80596477 7.51777649 12.81293869 C4.70690521 12.82054043 1.89675495 12.80896691 -0.9140625 12.79223633 C-1.74948074 12.79830902 -2.58489899 12.80438171 -3.44563293 12.81063843 C-9.12055038 12.7479235 -9.12055038 12.7479235 -11.27040863 11.0677433 C-12.56054688 9.40405273 -12.56054688 9.40405273 -12.99804688 6.40405273 C-12.56054688 3.40405273 -12.56054688 3.40405273 -11.0682373 1.74180603 C-7.45839977 -0.183899 -3.99280102 -0.02214796 0 0 Z " fill="#FFDA69" transform="translate(180.560546875,407.595947265625)"/>
<path d="M0 0 C0.85232712 -0.00671722 1.70465424 -0.01343445 2.58280945 -0.02035522 C5.40430507 -0.03937526 8.22556337 -0.04326131 11.04711914 -0.04541016 C13.00623168 -0.05183486 14.96534324 -0.05856297 16.92445374 -0.06558228 C21.03266627 -0.07756475 25.14079465 -0.08126206 29.24902344 -0.08007812 C34.51635796 -0.07987478 39.78315388 -0.10718867 45.05036068 -0.14162254 C49.09695419 -0.16384546 53.14341709 -0.1679171 57.19006538 -0.16685867 C59.13216574 -0.16922114 61.07426934 -0.1780808 63.01630974 -0.19352341 C65.7313106 -0.21309212 68.44513699 -0.20738174 71.16015625 -0.1953125 C72.36581238 -0.21217102 72.36581238 -0.21217102 73.5958252 -0.22937012 C77.16472736 -0.18899918 79.25036868 0.00493092 82.17897034 2.12557983 C83.64477539 4.29052734 83.64477539 4.29052734 83.58227539 7.41552734 C82.64477539 10.29052734 82.64477539 10.29052734 79.64477539 12.29052734 C76.82737082 12.4955652 74.10799837 12.58422493 71.28955078 12.58105469 C70.43722366 12.58777191 69.58489655 12.59448914 68.70674133 12.60140991 C65.88524571 12.62042995 63.06398741 12.62431599 60.24243164 12.62646484 C58.2833191 12.63288954 56.32420754 12.63961766 54.36509705 12.64663696 C50.25688451 12.65861944 46.14875613 12.66231674 42.04052734 12.66113281 C36.77319282 12.66092947 31.5063969 12.68824336 26.2391901 12.72267723 C22.19259659 12.74490015 18.14613369 12.74897179 14.0994854 12.74791336 C12.15738504 12.75027582 10.21528144 12.75913549 8.27324104 12.77457809 C5.55824019 12.79414681 2.84441379 12.78843643 0.12939453 12.77636719 C-1.0762616 12.79322571 -1.0762616 12.79322571 -2.30627441 12.8104248 C-5.87517658 12.77005387 -7.9608179 12.57612377 -10.88941956 10.45547485 C-12.35522461 8.29052734 -12.35522461 8.29052734 -12.29272461 5.16552734 C-10.32145511 -0.87969911 -5.39845828 -0.00607228 0 0 Z " fill="#FFDA6A" transform="translate(201.355224609375,181.70947265625)"/>
<path d="M0 0 C0.71745392 0.00247742 1.43490784 0.00495483 2.17410278 0.00750732 C2.93035446 0.00239639 3.68660614 -0.00271454 4.46577454 -0.00798035 C6.97287853 -0.02191329 9.47970875 -0.0209168 11.98684692 -0.01861572 C13.7255819 -0.02250071 15.46431592 -0.02683497 17.20304871 -0.03160095 C20.8506579 -0.03907118 24.49817031 -0.03876616 28.14578247 -0.0335083 C32.8246494 -0.02771347 37.5031205 -0.04464096 42.18192196 -0.06785297 C45.77382226 -0.08257145 49.36562684 -0.08346458 52.95755196 -0.08034325 C54.68276313 -0.08085744 56.40797952 -0.08611351 58.13316154 -0.09615517 C60.54420702 -0.10846561 62.95447637 -0.10176083 65.36550903 -0.09014893 C66.08093872 -0.09779266 66.79636841 -0.1054364 67.53347778 -0.11331177 C70.40814159 -0.08264616 72.36788245 -0.03921007 74.77397156 1.61793518 C76.46346854 4.26916416 76.27975525 6.22900843 75.83450317 9.28216553 C73.44338749 11.81879073 71.98454356 12.2647467 68.49514771 12.66984558 C67.1526871 12.69064769 65.80990887 12.69497763 64.46731567 12.68621826 C63.36417023 12.69651314 63.36417023 12.69651314 62.23873901 12.70701599 C59.8121297 12.72529065 57.38616641 12.72144617 54.95950317 12.71575928 C53.27086171 12.72032041 51.58222211 12.72562578 49.89358521 12.73164368 C46.3562363 12.74057579 42.81911316 12.73815016 39.2817688 12.72821045 C34.74864859 12.71671385 30.21630655 12.73694184 25.68328857 12.76612759 C22.1968389 12.78447187 18.71057639 12.78420082 15.22409058 12.77849007 C13.55273343 12.77833667 11.88136375 12.78439623 10.21005249 12.79678154 C7.87343468 12.81165892 5.53826319 12.80104061 3.20169067 12.78387451 C2.51169983 12.79354248 1.82170898 12.80321045 1.11080933 12.81317139 C-2.21555446 12.76199454 -3.93464243 12.45388917 -6.63375854 10.44612122 C-8.16549683 8.28216553 -8.16549683 8.28216553 -8.04049683 5.15716553 C-6.55982536 0.29210214 -4.8050285 0.05199599 0 0 Z " fill="#FFDA69" transform="translate(197.16549682617188,344.71783447265625)"/>
<path d="M0 0 C1.07388474 -0.005476 1.07388474 -0.005476 2.16946411 -0.01106262 C4.53118766 -0.01915516 6.89222227 -0.00556935 9.25390625 0.0090332 C10.89770507 0.00955197 12.54150452 0.00903363 14.18530273 0.00752258 C17.62851232 0.00761225 21.07148749 0.01802989 24.51464844 0.03613281 C28.92650692 0.05881981 33.33802295 0.05936347 37.74992371 0.05261517 C41.14370768 0.04927245 44.53741368 0.05591098 47.93118286 0.0657444 C49.55786735 0.06959147 51.18456052 0.07074666 52.81124878 0.06915855 C55.0852712 0.06878737 57.35885589 0.08142261 59.6328125 0.09765625 C61.57329468 0.10456734 61.57329468 0.10456734 63.55297852 0.11161804 C66.61312596 0.35607556 68.36792093 0.55045736 70.81640625 2.37231445 C71.75390625 5.80981445 71.75390625 5.80981445 71.81640625 9.37231445 C70.78613281 11.06971741 70.78613281 11.06971741 68.81640625 12.37231445 C66.25191752 12.67342713 63.92883709 12.79254578 61.36328125 12.77636719 C60.60688354 12.78323044 59.85048584 12.79009369 59.07116699 12.79716492 C56.56938947 12.81547555 54.06823643 12.81158991 51.56640625 12.8059082 C49.82909948 12.81046765 48.09179451 12.81577251 46.35449219 12.8217926 C42.7128161 12.83073182 39.07135922 12.82829105 35.4296875 12.81835938 C30.7585653 12.80686267 26.08819826 12.82708742 21.41717529 12.85627651 C17.82954081 12.8746047 14.24208848 12.87435295 10.65441895 12.86863899 C8.93199605 12.86848539 7.20956111 12.87456149 5.48718262 12.88693047 C3.08081383 12.90177723 0.67585531 12.89121192 -1.73046875 12.87402344 C-2.44432739 12.88369141 -3.15818604 12.89335937 -3.89367676 12.90332031 C-7.12418282 12.85489842 -8.7636709 12.7712327 -11.15332031 10.50111389 C-12.18359375 8.37231445 -12.18359375 8.37231445 -12.12109375 5.80981445 C-9.8988453 0.03196847 -5.64903719 -0.00274853 0 0 Z " fill="#FFDA69" transform="translate(201.18359375,364.627685546875)"/>
<path d="M0 0 C1.29143921 -0.00953201 2.58287842 -0.01906403 3.91345215 -0.02888489 C5.32446317 -0.02862349 6.7354742 -0.02768657 8.14648438 -0.02612305 C9.5923271 -0.03000979 11.03816869 -0.03434442 12.48400879 -0.03910828 C15.51362816 -0.0465693 18.54313099 -0.0462798 21.57275391 -0.04101562 C25.45683221 -0.03521652 29.34043435 -0.05216268 33.2244339 -0.0753603 C36.20984693 -0.09008414 39.19514486 -0.09097129 42.18058777 -0.08785057 C43.61273645 -0.08836432 45.04489149 -0.0936121 46.477005 -0.10366249 C48.47812265 -0.11598402 50.47933644 -0.10730799 52.48046875 -0.09765625 C54.1889801 -0.09860039 54.1889801 -0.09860039 55.93200684 -0.0995636 C58.74023438 0.2746582 58.74023438 0.2746582 60.60803223 1.61042786 C62.37777809 4.21178732 62.12202246 6.22035352 61.74023438 9.2746582 C60.60704041 10.93690491 60.60704041 10.93690491 58.74023438 12.2746582 C55.93873596 12.66233826 55.93873596 12.66233826 52.49633789 12.67871094 C50.56402061 12.6977372 50.56402061 12.6977372 48.59266663 12.71714783 C47.184823 12.71509631 45.77698047 12.71210823 44.36914062 12.70825195 C42.92569228 12.71281277 41.48224611 12.71811805 40.0388031 12.72413635 C37.01332784 12.73307273 33.98811646 12.73063885 30.96264648 12.72070312 C27.08747593 12.70921647 23.21321701 12.72941627 19.33816624 12.75862026 C16.35697147 12.77697729 13.37599533 12.77669084 10.39475822 12.77098274 C8.96622375 12.77082944 7.53767453 12.77688108 6.1091938 12.78927422 C4.11068854 12.80416872 2.11203343 12.7908851 0.11352539 12.77636719 C-1.02326157 12.77620102 -2.16004852 12.77603485 -3.33128357 12.77586365 C-6.90814765 12.16368856 -8.12362371 11.16777582 -10.25976562 8.2746582 C-10.19726562 5.1496582 -10.19726562 5.1496582 -9.25976562 2.2746582 C-5.71564193 -0.08809093 -4.20215453 0.01699811 0 0 Z " fill="#FFDA69" transform="translate(199.259765625,140.725341796875)"/>
<path d="M0 0 C0.97585304 -0.00525696 0.97585304 -0.00525696 1.97142029 -0.01062012 C4.12623705 -0.01943723 6.28072666 -0.01358856 8.43554688 -0.00683594 C9.93005435 -0.0081826 11.42456141 -0.01012314 12.91906738 -0.01263428 C16.0530209 -0.0155855 19.18686049 -0.01128801 22.32080078 -0.00195312 C26.34279701 0.0094415 30.36452633 0.00288201 34.38651276 -0.00909805 C37.47310404 -0.01631674 40.5596318 -0.0140287 43.64622498 -0.00884247 C45.12943045 -0.00750599 46.61264166 -0.00915363 48.09584045 -0.01380157 C50.16691419 -0.01886705 52.23755254 -0.01115678 54.30859375 0 C55.48836792 0.00159119 56.66814209 0.00318237 57.88366699 0.00482178 C60.65429688 0.25878906 60.65429688 0.25878906 62.65429688 2.25878906 C62.9992001 6.31140193 62.9559357 7.80633083 60.65429688 11.25878906 C57.89039612 11.64646912 57.89039612 11.64646912 54.32446289 11.6628418 C53.67550049 11.66970505 53.02653809 11.6765683 52.35791016 11.68363953 C50.20778666 11.70197503 48.0583882 11.69806067 45.90820312 11.69238281 C44.41608949 11.69694168 42.92397796 11.70224636 41.43186951 11.70826721 C38.30206787 11.71721172 35.1725212 11.7147605 32.04272461 11.70483398 C28.02955523 11.69334687 24.01726607 11.71354387 20.00421238 11.74275112 C16.92183327 11.76108897 13.83966598 11.76082551 10.75724602 11.7551136 C9.27764591 11.75496006 7.79803173 11.76103124 6.31848335 11.77340508 C4.24960118 11.78826781 2.18235597 11.77767587 0.11352539 11.76049805 C-1.06402817 11.76033188 -2.24158173 11.76016571 -3.45481873 11.75999451 C-6.34570312 11.25878906 -6.34570312 11.25878906 -8.26112366 9.39149475 C-9.34570312 7.25878906 -9.34570312 7.25878906 -9.15820312 4.63378906 C-7.43343102 -0.40785248 -4.84592726 0.00653581 0 0 Z " fill="#FFDA69" transform="translate(198.345703125,161.7412109375)"/>
<path d="M0 0 C1.10802475 -0.00630432 2.2160495 -0.01260864 3.35765076 -0.019104 C4.55455032 -0.01505554 5.75144989 -0.01100708 6.98461914 -0.00683594 C8.21386612 -0.00874939 9.4431131 -0.01066284 10.70960999 -0.01263428 C13.9780074 -0.01434538 17.24621519 -0.00628872 20.5145874 0.00488281 C23.83339826 0.01134809 27.15215399 -0.00398565 30.47094727 -0.01464844 C32.99633889 -0.01332667 35.52173023 -0.01076391 38.04711914 -0.00683594 C39.24199448 -0.0108844 40.43686981 -0.01493286 41.66795349 -0.019104 C43.33471886 -0.00964752 43.33471886 -0.00964752 45.03515625 0 C46.01205917 0.00159119 46.9889621 0.00318237 47.99546814 0.00482178 C50.70855727 0.27118715 52.33265704 0.72980814 54.58227539 2.25878906 C55.51977539 5.13378906 55.51977539 5.13378906 55.58227539 8.25878906 C54.44299316 10.42274475 54.44299316 10.42274475 52.58227539 12.25878906 C50.00183105 12.75999451 50.00183105 12.75999451 46.87329102 12.76049805 C45.11631897 12.77456947 45.11631897 12.77456947 43.32385254 12.78892517 C42.05819458 12.77769119 40.79253662 12.76645721 39.48852539 12.75488281 C38.1903186 12.75633804 36.89211182 12.75779327 35.55456543 12.7592926 C32.80724826 12.76067688 30.06045298 12.74811504 27.31323242 12.7253418 C23.7922764 12.69695602 20.27218749 12.69969357 16.7511673 12.71243191 C13.39269574 12.72106056 10.03448231 12.70594347 6.67602539 12.69238281 C5.41036743 12.69531845 4.14470947 12.69825409 2.84069824 12.70127869 C1.66938354 12.68859451 0.49806885 12.67591034 -0.70874023 12.6628418 C-2.25736755 12.65473732 -2.25736755 12.65473732 -3.83728027 12.64646912 C-6.41772461 12.25878906 -6.41772461 12.25878906 -8.28234863 10.95619202 C-9.41772461 9.25878906 -9.41772461 9.25878906 -9.29272461 5.69628906 C-7.88884479 0.18104693 -5.14298643 0.00838376 0 0 Z " fill="#FFDA69" transform="translate(177.417724609375,430.7412109375)"/>
<path d="M0 0 C4.03233562 2.25497603 6.49852886 4.96999811 7.8125 9.4375 C8.54778493 14.70704198 8.45288781 18.96994461 6.3125 23.875 C2.47083542 27.8127062 -1.11551386 30.15385809 -6.68359375 30.66796875 C-12.32001806 30.43633487 -15.7119872 28.9398425 -19.8125 25.10546875 C-23.28818786 20.8892224 -23.62156629 17.24017169 -23.50390625 11.90625 C-22.87575057 7.00508473 -20.16340073 4.3181909 -16.625 1.125 C-11.33746477 -2.53560131 -5.80091639 -2.53248962 0 0 Z M-8.1875 10.4375 C-9.1775 11.0975 -10.1675 11.7575 -11.1875 12.4375 C-10.8575 14.0875 -10.5275 15.7375 -10.1875 17.4375 C-8.29570797 18.1189823 -8.29570797 18.1189823 -6.1875 18.4375 C-5.5275 17.7775 -4.8675 17.1175 -4.1875 16.4375 C-4.50791397 13.83469432 -4.50791397 13.83469432 -5.1875 11.4375 C-6.1775 11.1075 -7.1675 10.7775 -8.1875 10.4375 Z " fill="#FFDA69" transform="translate(225.1875,35.5625)"/>
<path d="M0 0 C1.13465195 -0.00637985 2.26930389 -0.0127597 3.43833923 -0.01933289 C4.67370926 -0.02044571 5.90907928 -0.02155853 7.18188477 -0.02270508 C9.07040916 -0.02769768 9.07040916 -0.02769768 10.99708557 -0.03279114 C13.66622437 -0.03786576 16.33526142 -0.04063047 19.00439453 -0.04003906 C22.42891817 -0.03993743 25.85323452 -0.05358833 29.27770901 -0.07081127 C32.53742665 -0.08458749 35.79714193 -0.08401959 39.05688477 -0.08520508 C40.29023056 -0.09239059 41.52357635 -0.09957611 42.79429626 -0.10697937 C44.50100243 -0.10236443 44.50100243 -0.10236443 46.2421875 -0.09765625 C47.74989967 -0.09979378 47.74989967 -0.09979378 49.28807068 -0.10197449 C51.68579102 0.14526367 51.68579102 0.14526367 53.68579102 2.14526367 C54.06079102 5.58276367 54.06079102 5.58276367 53.68579102 9.14526367 C50.75366103 12.07821147 48.51369388 12.52786072 44.44580078 12.56518555 C43.40114151 12.58109741 42.35648224 12.59700928 41.28016663 12.61340332 C39.59569679 12.61370544 39.59569679 12.61370544 37.87719727 12.61401367 C36.13888893 12.62543396 36.13888893 12.62543396 34.36546326 12.63708496 C31.91521357 12.64788814 29.46491782 12.6507382 27.01464844 12.64624023 C23.26557636 12.64526815 19.51855182 12.68688648 15.76977539 12.73120117 C13.38892029 12.73640827 11.00805806 12.73909636 8.62719727 12.73901367 C7.50624161 12.75540894 6.38528595 12.7718042 5.23036194 12.78869629 C-3.42739746 12.71180833 -3.42739746 12.71180833 -6.56054688 9.6081543 C-7.13925537 8.79540039 -7.71796387 7.98264648 -8.31420898 7.14526367 C-6.0411231 0.0229279 -6.0411231 0.0229279 0 0 Z " fill="#FFDA69" transform="translate(197.314208984375,273.854736328125)"/>
<path d="M0 0 C0.96795502 -0.01283524 1.93591003 -0.02567047 2.93319702 -0.03889465 C3.98214142 -0.04628159 5.03108582 -0.05366852 6.11181641 -0.0612793 C7.18710602 -0.06935104 8.26239563 -0.07742279 9.37026978 -0.08573914 C11.64836003 -0.09958548 13.92647107 -0.11030516 16.20458984 -0.11816406 C19.69229267 -0.13539388 23.17905195 -0.17927802 26.66650391 -0.22338867 C28.87743442 -0.23351383 31.08837301 -0.24203049 33.29931641 -0.2487793 C34.34421234 -0.26628738 35.38910828 -0.28379547 36.46566772 -0.30183411 C43.66581387 -0.28021305 43.66581387 -0.28021305 47.03222656 2.00830078 C48.33837891 4.17700195 48.33837891 4.17700195 48.27587891 7.30200195 C47.33837891 10.17700195 47.33837891 10.17700195 44.33837891 12.17700195 C42.09960938 12.45115662 42.09960938 12.45115662 39.45556641 12.48339844 C37.96887451 12.50737953 37.96887451 12.50737953 36.45214844 12.53184509 C35.38335449 12.53720779 34.31456055 12.5425705 33.21337891 12.5480957 C31.56571533 12.56163841 31.56571533 12.56163841 29.88476562 12.57545471 C27.56138846 12.58996757 25.23797034 12.59884651 22.91455078 12.60253906 C19.35200701 12.61445636 15.79118306 12.66365205 12.22900391 12.71411133 C9.97380405 12.72357274 7.71859353 12.73080912 5.46337891 12.7355957 C4.39458496 12.75512802 3.32579102 12.77466034 2.22460938 12.79478455 C-0.49636752 12.77809915 -2.99596445 12.72197652 -5.66162109 12.17700195 C-7.89990234 9.84521484 -7.89990234 9.84521484 -8.66162109 7.17700195 C-7.97412109 3.92700195 -7.97412109 3.92700195 -6.66162109 1.17700195 C-4.25134002 -0.02813858 -2.69269901 0.03104017 0 0 Z " fill="#FFDA69" transform="translate(197.66162109375,252.822998046875)"/>
<path d="M0 0 C0.9311412 -0.0127597 1.86228241 -0.02551941 2.82164001 -0.03866577 C4.33414085 -0.04200424 4.33414085 -0.04200424 5.87719727 -0.04541016 C7.42710106 -0.05539536 7.42710106 -0.05539536 9.00831604 -0.06558228 C11.19644385 -0.07572019 13.38460264 -0.08039894 15.57275391 -0.08007812 C18.92670454 -0.08445063 22.2793391 -0.12075733 25.63305664 -0.15869141 C27.756099 -0.16455935 29.87914763 -0.16852889 32.00219727 -0.17041016 C33.51166176 -0.19196671 33.51166176 -0.19196671 35.05162048 -0.21395874 C35.98591385 -0.20780548 36.92020721 -0.20165222 37.8828125 -0.1953125 C38.70506821 -0.19816254 39.52732391 -0.20101257 40.37449646 -0.20394897 C42.50610352 0.29052734 42.50610352 0.29052734 44.29896545 2.12557983 C45.50610352 4.29052734 45.50610352 4.29052734 45.44360352 7.41552734 C44.50610352 10.29052734 44.50610352 10.29052734 42.71763611 11.45106506 C40.38337692 12.33711239 38.67182466 12.56115126 36.18408203 12.59692383 C35.33963028 12.61291122 34.49517853 12.62889862 33.62513733 12.64537048 C32.72089523 12.65073318 31.81665314 12.65609589 30.88500977 12.66162109 C29.94809799 12.67064957 29.01118622 12.67967804 28.04588318 12.6889801 C26.06642854 12.70347258 24.08692611 12.71236685 22.10742188 12.71606445 C19.08259384 12.72797227 16.05979873 12.77717675 13.03540039 12.82763672 C11.11028012 12.83710004 9.18514735 12.84433551 7.26000977 12.84912109 C5.90668297 12.87841957 5.90668297 12.87841957 4.52601624 12.90830994 C0.00534844 12.87589457 -1.90202682 12.74047453 -5.60742188 9.92358398 C-7.49389648 7.29052734 -7.49389648 7.29052734 -7.43139648 4.60302734 C-5.76293937 0.48749979 -4.18677101 0.03885551 0 0 Z " fill="#FFDA69" transform="translate(196.493896484375,232.70947265625)"/>
<path d="M0 0 C0.84059636 2.68990836 1.27236422 4.2501689 1 7 C-0.87033311 10.10654643 -3.41567024 12.47848381 -6 15 C-7.299375 16.33417969 -7.299375 16.33417969 -8.625 17.6953125 C-16.57429294 25.80636431 -16.57429294 25.80636431 -21.25 26.44140625 C-26.34647187 25.84150904 -27.90568946 23.80750757 -31 19.9375 C-31.50144531 19.37611328 -32.00289063 18.81472656 -32.51953125 18.23632812 C-35.22958918 14.97007373 -36 13.58076019 -36 9.19140625 C-35 6 -35 6 -32 4 C-28.32380474 4.15643384 -26.49584468 4.59549513 -23.625 6.9375 C-22 9 -22 9 -22 11 C-21.49210938 10.55269531 -20.98421875 10.10539062 -20.4609375 9.64453125 C-18.31219116 7.75733643 -16.15728753 5.8774232 -14 4 C-13.41863281 3.49082031 -12.83726562 2.98164063 -12.23828125 2.45703125 C-7.62837666 -1.50260972 -5.60935352 -2.57727054 0 0 Z " fill="#FFDA69" transform="translate(160,247)"/>
<path d="M0 0 C2.796875 0.37890625 2.796875 0.37890625 4.671875 1.50390625 C6.32274014 4.25534816 6.10021415 6.21436088 5.796875 9.37890625 C4.23974609 11.6965332 4.23974609 11.6965332 2.0703125 13.8671875 C1.28527344 14.65544922 0.50023437 15.44371094 -0.30859375 16.25585938 C-1.14003906 17.05958984 -1.97148437 17.86332031 -2.828125 18.69140625 C-3.63636719 19.51447266 -4.44460937 20.33753906 -5.27734375 21.18554688 C-12.27345925 28.0849681 -12.27345925 28.0849681 -18.203125 28.37890625 C-20.70759617 26.78030763 -22.22413958 25.51310621 -24.203125 23.37890625 C-25.17765625 22.3425 -25.17765625 22.3425 -26.171875 21.28515625 C-31.07809619 15.60016979 -31.07809619 15.60016979 -31.421875 12.2421875 C-31.140625 10.31640625 -31.140625 10.31640625 -30.203125 7.37890625 C-27.515625 6.19140625 -27.515625 6.19140625 -24.203125 5.37890625 C-20.63865779 6.918108 -19.37464727 8.12162284 -17.203125 11.37890625 C-11.87991576 10.80242967 -9.19657945 6.28695174 -5.8359375 2.53125 C-3.203125 0.37890625 -3.203125 0.37890625 0 0 Z " fill="#FFDA69" transform="translate(155.203125,153.62109375)"/>
<path d="M0 0 C2 2 2 2 2.37158203 4.82861328 C1.91054374 8.76349328 0.81819187 9.95400374 -1.9453125 12.7421875 C-2.77546875 13.58007812 -3.605625 14.41796875 -4.4609375 15.28125 C-5.34007812 16.1371875 -6.21921875 16.993125 -7.125 17.875 C-7.9809375 18.75414062 -8.836875 19.63328125 -9.71875 20.5390625 C-10.55664062 21.36921875 -11.39453125 22.199375 -12.2578125 23.0546875 C-13.40467529 24.19139893 -13.40467529 24.19139893 -14.57470703 25.35107422 C-17.62472866 27.42474505 -19.38084126 27.46593034 -23 27 C-25.4375 25.0625 -25.4375 25.0625 -28 22 C-28.61617187 21.28714844 -29.23234375 20.57429688 -29.8671875 19.83984375 C-34.92340627 13.75816696 -34.92340627 13.75816696 -35.26953125 10.33203125 C-35 8 -35 8 -33.875 6.1875 C-30.97370638 4.35001404 -29.38577839 4.41399989 -26 5 C-23.43656531 6.77587343 -21.20895653 8.80411422 -19 11 C-18.22914063 10.21753906 -17.45828125 9.43507813 -16.6640625 8.62890625 C-15.65117427 7.60663943 -14.63814616 6.58451119 -13.625 5.5625 C-13.11710937 5.04623047 -12.60921875 4.52996094 -12.0859375 3.99804688 C-7.65465498 -0.46238882 -6.21274075 -1.42375309 0 0 Z " fill="#FFDA69" transform="translate(159,338)"/>
</svg>
