<?xml version="1.0" encoding="UTF-8"?>
<svg version="1.1" xmlns="http://www.w3.org/2000/svg" width="512" height="512">
<path d="M0 0 C1.04597123 -0.00262956 1.04597123 -0.00262956 2.1130732 -0.00531223 C4.44311968 -0.00995375 6.77310325 -0.00751152 9.10315228 -0.00507832 C10.7932354 -0.00694722 12.48331809 -0.00924824 14.1734001 -0.01194364 C18.81292872 -0.01805822 23.45243931 -0.01792845 28.09197104 -0.01674926 C33.09754217 -0.01654517 38.10310752 -0.02206481 43.10867596 -0.02680683 C52.91359415 -0.03511197 62.71850634 -0.03786161 72.52342776 -0.03841921 C80.4932376 -0.03889442 88.46304545 -0.04094939 96.43285465 -0.04411983 C119.02922863 -0.05292588 141.62559787 -0.05753927 164.22197358 -0.05678936 C165.44005671 -0.0567494 166.65813984 -0.05670945 167.91313457 -0.05666828 C169.13270502 -0.0566274 170.35227546 -0.05658652 171.60880258 -0.0565444 C191.37624799 -0.0561379 211.14367435 -0.06570861 230.91111425 -0.07980665 C251.20866825 -0.09416853 271.50621295 -0.10107694 291.80377215 -0.10021287 C303.19912437 -0.09988085 314.59445662 -0.10263037 325.98980427 -0.11339092 C335.69143484 -0.12249342 345.39303639 -0.12467321 355.09466938 -0.1178815 C360.0437034 -0.1146151 364.99268174 -0.11456399 369.94171047 -0.12323475 C374.47490788 -0.13109524 379.0080054 -0.12967289 383.54120036 -0.12095062 C385.17843995 -0.11941465 386.81568698 -0.12123544 388.45291779 -0.12681069 C403.20371699 -0.17370239 415.92812557 1.23542495 428.13847637 10.44113445 C438.77456844 21.33046681 441.92777802 33.77072227 441.88373089 48.56891155 C441.88501253 50.14468548 441.88501253 50.14468548 441.88632005 51.75229323 C441.88796684 55.27147511 441.88246656 58.79060931 441.87700176 62.3097868 C441.87671969 64.83280721 441.87687801 67.35582771 441.87744427 69.87884808 C441.87767197 75.31029523 441.87483598 80.74172704 441.86920643 86.17317104 C441.8610724 94.02608275 441.85847426 101.87898864 441.85721844 109.7319041 C441.85503091 122.47336309 441.84837893 135.21481567 441.83891582 147.95627117 C441.82973397 160.33192189 441.82265692 172.70757086 441.81840801 185.0832243 C441.81801393 186.22786609 441.81801393 186.22786609 441.81761188 187.39563195 C441.81630682 191.22393038 441.81504312 195.05222881 441.81379998 198.88052726 C441.80343668 230.62990102 441.78575206 262.37926674 441.76347637 294.12863445 C443.03259869 294.26378963 444.301721 294.39894482 445.60930157 294.53819561 C448.4166397 294.83716309 449.73929171 295.11444775 452.23027325 296.57565594 C454.62878458 300.56948286 454.33459445 304.4012056 454.29472637 308.9762907 C454.29855328 309.94336452 454.30238018 310.91043835 454.30632305 311.90681744 C454.30904434 313.95529501 454.30166805 316.00380719 454.28496075 318.05221844 C454.26371702 321.15597574 454.2846705 324.25737493 454.31035137 327.36105633 C454.33164551 341.85526408 453.20002355 353.21769876 442.76347637 364.12863445 C432.93571218 373.3535804 422.40056983 376.29741553 409.08966637 376.25726891 C408.34507775 376.25902194 407.60048913 376.26077498 406.83333722 376.26258114 C404.34247676 376.26722689 401.85167504 376.26477932 399.36081219 376.26234722 C397.55523468 376.26421591 395.74965759 376.26651684 393.94408113 376.26921254 C388.98530877 376.27532976 384.02655327 376.27519704 379.06777799 376.27401817 C373.71864555 376.27381414 368.36951852 376.27933308 363.0203886 376.28407574 C352.54169336 376.29238232 342.06300375 376.29513058 331.58430549 376.29568812 C323.06720348 376.29616325 314.55010332 376.29821788 306.0330019 376.30138874 C281.88717719 376.31019517 257.74135692 376.31480811 233.59553059 376.31405827 C232.29381159 376.31401831 230.99209258 376.31397835 229.65092754 376.31393719 C228.34761989 376.31389631 227.04431223 376.31385543 225.70151041 376.31381331 C204.57609497 376.31340679 183.45069735 376.32297773 162.32528707 376.33707555 C140.63555788 376.35143581 118.94583739 376.35834594 97.25610334 376.35748178 C85.07827268 376.3571497 72.9004607 376.35990167 60.72263432 376.37065983 C50.35492432 376.37976019 39.98724147 376.38194387 29.61952921 376.3751504 C24.33025172 376.37188293 19.04102635 376.3718368 13.75175381 376.38050365 C8.90768752 376.38835937 4.06371476 376.38694668 -0.78034922 376.37821952 C-2.53064321 376.3766825 -4.28094415 376.37850831 -6.03122995 376.3840796 C-22.42170592 376.432787 -35.73454344 375.05803622 -48.19355488 363.37082195 C-56.27813441 354.49787998 -58.54473771 345.39660389 -58.57246113 333.7419157 C-58.57911793 332.76248501 -58.58577473 331.78305431 -58.59263325 330.7739439 C-58.60271571 328.71405182 -58.60745164 326.65412736 -58.6071291 324.59421062 C-58.61152461 321.44043143 -58.64795199 318.28802793 -58.68574238 315.13449383 C-58.69160695 313.12863922 -58.69557875 311.122778 -58.69746113 309.1169157 C-58.71183216 308.17520016 -58.72620319 307.23348461 -58.74100971 306.26323223 C-58.7141403 302.42910742 -58.695858 299.89832395 -56.70771503 296.56686687 C-53.2527732 294.55609209 -50.20433497 294.55178348 -46.23652363 294.12863445 C-46.23928901 292.8203405 -46.24205439 291.51204655 -46.24490356 290.16410732 C-46.30993915 259.077002 -46.35937619 227.98991471 -46.38971962 196.90275721 C-46.39347154 193.07277607 -46.39735452 189.24279507 -46.40131855 185.41281414 C-46.40210548 184.65036448 -46.40289241 183.88791483 -46.40370319 183.10236064 C-46.41674138 170.77231257 -46.44038644 158.44230666 -46.46798202 146.11228356 C-46.49608045 133.45156931 -46.51270925 120.79087706 -46.51878911 108.13013291 C-46.52289637 100.32376972 -46.53584799 92.51752569 -46.56027303 84.71119919 C-46.57807167 78.71567414 -46.57987808 72.72025064 -46.57584667 66.72469616 C-46.57666978 64.27219187 -46.58260752 61.81968293 -46.59414005 59.36720562 C-46.6091567 56.00812018 -46.60544362 52.64953671 -46.59728718 49.29043865 C-46.6060257 48.32930999 -46.61476423 47.36818132 -46.62376755 46.37792754 C-46.5368446 33.05323964 -42.67247557 20.77903985 -33.23652363 11.12863445 C-23.16726856 3.14129295 -12.78171056 0.00727633 0 0 Z M-24.23652363 27.12863445 C-27.593229 32.32861735 -29.36261742 37.40167565 -29.35957146 43.60325527 C-29.36156233 44.49976551 -29.3635532 45.39627575 -29.3656044 46.31995296 C-29.36269174 47.30021324 -29.35977907 48.28047352 -29.35677814 49.29043865 C-29.35763416 50.33264065 -29.35849018 51.37484264 -29.35937214 52.44862652 C-29.36103141 55.96274795 -29.35549704 59.47682205 -29.35004902 62.99093914 C-29.34974279 65.54456487 -29.34987599 68.09819068 -29.35041428 70.65181637 C-29.35061749 76.80767985 -29.34632664 82.96352576 -29.33991295 89.11938544 C-29.33271683 96.23916806 -29.33191841 103.35894558 -29.33112812 110.47873211 C-29.32587642 129.27870187 -29.31191532 148.07866838 -29.29902363 166.87863445 C-29.27839863 208.87113445 -29.25777363 250.86363445 -29.23652363 294.12863445 C120.58347637 294.12863445 270.40347637 294.12863445 424.76347637 294.12863445 C424.82535137 252.23925945 424.88722637 210.34988445 424.95097637 167.19113445 C424.97828838 153.96027752 425.0056004 140.72942059 425.03374004 127.09762859 C425.04377282 115.24642585 425.04377282 115.24642585 425.04980755 103.39522076 C425.05260456 98.11307512 425.06360655 92.83102179 425.08020306 87.54890728 C425.10134282 80.81084289 425.10694975 74.0729331 425.1026932 67.33482921 C425.10358327 64.86220531 425.10953195 62.38957681 425.12112176 59.91697991 C425.13605845 56.57505795 425.13244099 53.23364506 425.12423992 49.89171124 C425.13297791 48.92601428 425.14171591 47.96031733 425.15071869 46.96535683 C425.09027498 37.79180606 423.08013152 30.60657065 416.73222637 23.85519695 C410.53550533 18.42077096 403.94522635 17.00530678 395.89330292 16.99720669 C395.1991507 16.99515405 394.50499848 16.99310142 393.78981134 16.99098659 C391.45246815 16.98531024 389.11518377 16.98677462 386.77783489 16.98819256 C385.08962806 16.98560928 383.40142185 16.98259623 381.71321648 16.97918916 C377.06498108 16.97111143 372.41676111 16.96932915 367.76851952 16.96859169 C362.75882338 16.96674247 357.74913528 16.95919579 352.73944378 16.95245647 C341.78074925 16.93886702 330.82205838 16.93284745 319.86335683 16.92844582 C313.02216753 16.92568436 306.18097964 16.92144718 299.3397913 16.91694164 C280.40292004 16.90474805 261.46604991 16.894449 242.5291748 16.89106655 C241.31685873 16.89084699 240.10454266 16.89062742 238.85548974 16.8904012 C237.03263403 16.89007378 237.03263403 16.89007378 235.17295295 16.88973975 C232.71037026 16.88929628 230.24778757 16.88884972 227.78520489 16.88840008 C226.56367563 16.88817865 225.34214637 16.88795722 224.08360108 16.88772908 C204.28941445 16.88378087 184.49526463 16.86632657 164.70109222 16.84304056 C144.38442771 16.81933258 124.06778167 16.80686495 103.7511031 16.80569863 C92.34175309 16.80478155 80.93245102 16.79902081 69.5231142 16.78087902 C59.80783236 16.76548551 50.0926133 16.76035315 40.37732158 16.76861712 C35.42030425 16.7725263 30.46341336 16.77158091 25.50641155 16.75755978 C20.9669388 16.74483706 16.42768771 16.74600409 11.88821533 16.75815049 C10.24753748 16.76011031 8.60684401 16.75701589 6.96618811 16.74830613 C-5.42586172 16.68669476 -15.59931298 17.27986937 -24.23652363 27.12863445 Z M-42.23652363 311.12863445 C-43.7240637 332.88289606 -43.7240637 332.88289606 -35.23652363 352.12863445 C-27.89217081 357.68521717 -21.97266343 359.25142036 -12.83725071 359.26006222 C-12.09804693 359.26211485 -11.35884315 359.26416749 -10.59723926 359.26628232 C-8.11266515 359.27195057 -5.62814652 359.27049529 -3.14356709 359.26907635 C-1.34725244 359.27166008 0.44906164 359.27467326 2.24537492 359.27807975 C7.18779171 359.28615197 12.13019398 359.28793944 17.07261658 359.28867722 C22.4006346 359.29052736 27.72864508 359.29807447 33.05665874 359.30481243 C44.70948686 359.3183975 56.36231154 359.32442064 68.01514626 359.32882309 C75.28968854 359.33158502 82.56422949 359.33582226 89.83877087 359.34032726 C109.97579522 359.35251977 130.1128185 359.36281937 150.24984646 359.36620235 C151.5387853 359.36642192 152.82772414 359.36664149 154.15572174 359.36686771 C156.09377827 359.36719512 156.09377827 359.36719512 158.07098746 359.36752915 C160.68918689 359.36797262 163.30738632 359.36841918 165.92558575 359.36886883 C167.87366536 359.36920097 167.87366536 359.36920097 169.86110011 359.36953983 C190.90972828 359.37348869 211.95832184 359.3909455 233.00693664 359.41422835 C254.61184686 359.43793388 276.2167397 359.45040383 297.82166314 359.45157027 C309.9542312 359.45248744 322.08675416 359.45825037 334.21930981 359.47638988 C344.54940943 359.49178003 354.87945003 359.49691771 365.20955893 359.48865178 C370.4804967 359.48474155 375.75131555 359.48569319 381.02223873 359.49970913 C385.84848276 359.51242534 390.67451825 359.51127053 395.5007619 359.49911842 C397.2457159 359.49715748 398.99068457 359.50025813 400.73561797 359.50896278 C411.70770164 359.56022733 421.87879802 359.59984125 430.76347637 352.12863445 C440.68317922 338.84859865 436.76347637 331.6064469 436.76347637 311.12863445 C389.57347637 311.12863445 342.38347637 311.12863445 293.76347637 311.12863445 C290.13347637 322.34863445 286.50347637 333.56863445 282.76347637 345.12863445 C279.1085742 348.78353663 278.20426083 348.50487627 273.19682598 348.50958538 C272.19160223 348.51660534 272.19160223 348.51660534 271.16607094 348.52376711 C268.91578727 348.53575333 266.66610854 348.52624621 264.41582012 348.51681805 C262.80449855 348.52088216 261.19317975 348.52622313 259.58186626 348.53274822 C255.20174763 348.54644682 250.82184053 348.54111274 246.4417181 348.53161097 C241.86268567 348.52402751 237.28367161 348.53105631 232.70463848 348.53576946 C225.01425702 348.54123086 217.32396192 348.53402535 209.63359356 348.51974773 C200.73635309 348.50342047 191.83931883 348.50870871 182.94208336 348.52522695 C175.30974942 348.5388309 167.67747764 348.54076683 160.0451355 348.53291094 C155.48375664 348.52822841 150.92247477 348.52762545 146.3611021 348.53752041 C142.07322163 348.54617196 137.78560762 348.5402015 133.497756 348.52283764 C131.92193704 348.51886307 130.34609575 348.52002337 128.77028561 348.52662563 C126.6232609 348.53479333 124.47709628 348.52457869 122.33012676 348.50958538 C121.1273962 348.5084543 119.92466564 348.50732323 118.6854887 348.50615788 C115.76347637 348.12863445 115.76347637 348.12863445 112.76347637 345.12863445 C107.31847637 328.29863445 107.31847637 328.29863445 101.76347637 311.12863445 C54.24347637 311.12863445 6.72347637 311.12863445 -42.23652363 311.12863445 Z M119.76347637 311.12863445 C121.73489327 320.7288795 121.73489327 320.7288795 125.76347637 332.12863445 C173.28347637 332.12863445 220.80347637 332.12863445 269.76347637 332.12863445 C273.91456282 321.81543007 273.91456282 321.81543007 275.76347637 311.12863445 C224.28347637 311.12863445 172.80347637 311.12863445 119.76347637 311.12863445 Z " fill="#FFC106" transform="translate(58.23652362823486,67.87136554718018)"/>
<path d="M0 0 C0.9497168 -0.00335861 1.89943359 -0.00671722 2.87792969 -0.01017761 C6.0294728 -0.01970628 9.18096289 -0.02163173 12.33251953 -0.02270508 C14.517263 -0.02591647 16.70200626 -0.02928045 18.88674927 -0.03279114 C23.47170511 -0.03878731 28.05664208 -0.04063055 32.64160156 -0.04003906 C38.52198113 -0.03993745 44.40223993 -0.05358707 50.28259087 -0.07081127 C54.79668739 -0.08192038 59.31075463 -0.0839586 63.82486343 -0.08342934 C65.99302715 -0.0846112 68.16119158 -0.08904447 70.32934189 -0.0967617 C73.36027267 -0.10653897 76.39094014 -0.10369237 79.421875 -0.09765625 C80.32072418 -0.10327576 81.21957336 -0.10889526 82.1456604 -0.11468506 C82.97285583 -0.11049057 83.80005127 -0.10629608 84.65231323 -0.10197449 C85.36871412 -0.10251925 86.08511501 -0.10306402 86.82322502 -0.1036253 C89.95484867 0.28278285 92.16604104 1.31042721 94.15283203 3.77026367 C95.16400072 7.26339188 95.06907866 10.70618546 93.84033203 14.14526367 C92.04585483 16.12524374 90.54700211 17.04366376 87.8878479 17.42597771 C85.34432482 17.54437198 82.81631878 17.56185188 80.27001953 17.54931641 C78.81574554 17.55961128 78.81574554 17.55961128 77.33209229 17.57011414 C74.12635671 17.58842032 70.92110868 17.58453947 67.71533203 17.57885742 C65.48860514 17.58341705 63.26187967 17.58872196 61.03515625 17.59474182 C56.36794315 17.6036802 51.7009011 17.60124106 47.03369141 17.59130859 C41.04782259 17.57981218 35.06254309 17.60003746 29.07675171 17.62922573 C24.47855876 17.64755556 19.8805079 17.64730177 15.2822876 17.64158821 C13.07504448 17.64143463 10.86779195 17.64750885 8.6605835 17.65987968 C5.5768922 17.67472857 2.49430099 17.66415747 -0.58935547 17.64697266 C-1.50376404 17.65664062 -2.41817261 17.66630859 -3.36029053 17.67626953 C-9.51895414 17.60426533 -9.51895414 17.60426533 -12.6953125 15.32875061 C-14.79537472 12.1973672 -15.15966797 9.9010103 -15.15966797 6.14526367 C-11.0317125 -0.40252776 -7.21765941 -0.00362272 0 0 Z " fill="#FFC107" transform="translate(228.15966796875,99.854736328125)"/>
<path d="M0 0 C2.4375 1.625 2.4375 1.625 4 4 C4.72125695 8.40768137 4.52001338 10.25937488 1.9375 13.9375 C-1 16 -1 16 -4.5 16.625 C-8.9297642 15.83397068 -10.39210172 14.63525215 -13 11 C-13.55348638 7.12559532 -13.29968563 4.21955988 -11 1 C-7.43300025 -1.77433314 -4.20504308 -1.05126077 0 0 Z " fill="#FFC206" transform="translate(202,101)"/>
</svg>
